<?xml version="1.0" standalone="no"?>
<!DOCTYPE svg PUBLIC "-//W3C//DTD SVG 1.1//EN" "http://www.w3.org/Graphics/SVG/1.1/DTD/svg11.dtd" >
<svg xmlns="http://www.w3.org/2000/svg">
<metadata></metadata>
<defs>
<font id="cordalight" horiz-adv-x="538" >
<font-face units-per-em="1000" ascent="749" descent="-251" />
<missing-glyph horiz-adv-x="225" />
<glyph unicode="&#xfb01;" horiz-adv-x="577" d="M264 -1q-58 3 -120 3q-63 0 -100 -3v16q39 2 54 21t15 67v333h-75v21q40 8 57 33.5t23 67.5q29 192 209 192q60 0 93 -24t33 -52q0 -21 -17.5 -36.5t-44.5 -20.5l-6 4q0 90 -76 90q-84 0 -115 -74q-20 -46 -20 -131v-30h113q46 0 78 2t45.5 4t16.5 2q39 0 46 -40 q2 -11 2 -48v-300q0 -43 17.5 -61.5t63.5 -19.5v-16q-58 3 -111 3q-62 0 -100 -3v16q40 2 55.5 21t15.5 67v210q0 75 -16.5 99t-64.5 24h-161v-333q0 -51 20.5 -68.5t69.5 -19.5v-16z" />
<glyph unicode="&#xfb02;" horiz-adv-x="572" d="M264 -1q-58 3 -120 3q-63 0 -100 -3v16q39 2 54 21t15 67v333h-75v21q42 9 57 33.5t26 87.5q15 89 71 130.5t122 41.5q53 0 91 -16q28 15 42 15q12 0 18 -6t8 -26q2 -26 2 -59v-562q0 -43 17 -61.5t63 -19.5v-16q-60 3 -110 3q-63 0 -100 -3v16q39 2 54.5 21t15.5 67v453 q0 88 -19 116q-26 39 -82 39q-36 0 -66.5 -15.5t-46.5 -44.5q-27 -48 -27 -135v-40h136v-40h-136v-333q0 -51 20.5 -68.5t69.5 -19.5v-16z" />
<glyph unicode="&#xfb03;" horiz-adv-x="879" d="M264 -1q-58 3 -120 3q-63 0 -100 -3v16q39 2 54 21t15 67v333h-75v21q43 9 58 31t22 82q10 88 60 127t115 39q59 0 84.5 -19.5t25.5 -42.5q0 -33 -49 -43l-6 4q0 39 -19 50.5t-53 11.5q-21 0 -45.5 -12.5t-39.5 -40.5q-17 -33 -17 -117v-51h129q77 0 91 13q20 17 26 69 q26 192 209 192q60 0 93 -24t33 -52q0 -21 -17.5 -36.5t-44.5 -20.5l-6 4q0 90 -76 90q-84 0 -115 -74q-20 -46 -20 -131v-30h113q46 0 78 2t45.5 4t16.5 2q39 0 46 -40q2 -11 2 -48v-300q0 -43 17.5 -61.5t63.5 -19.5v-16q-58 3 -111 3q-62 0 -100 -3v16q40 2 55.5 21 t15.5 67v210q0 75 -16.5 99t-64.5 24h-161v-333q0 -51 20.5 -68.5t69.5 -19.5v-16q-58 3 -120 3q-63 0 -100 -3v16q39 2 54 21t15 67v333h-241v-333q0 -51 20.5 -68.5t69.5 -19.5v-16z" />
<glyph unicode="&#xfb04;" horiz-adv-x="874" d="M264 -1q-58 3 -120 3q-63 0 -100 -3v16q39 2 54 21t15 67v333h-75v21q43 9 58 31t22 82q10 88 60 127t115 39q59 0 84.5 -19.5t25.5 -42.5q0 -33 -49 -43l-6 4q0 39 -19 50.5t-53 11.5q-21 0 -45.5 -12.5t-39.5 -40.5q-17 -33 -17 -117v-51h161q52 0 66 20q10 14 22 82 q15 89 71 130.5t122 41.5q53 0 91 -16q28 15 42 15q12 0 18 -6t8 -26q2 -26 2 -59v-562q0 -43 17 -61.5t63 -19.5v-16q-60 3 -110 3q-63 0 -100 -3v16q39 2 54.5 21t15.5 67v453q0 88 -19 116q-26 39 -82 39q-36 0 -66.5 -15.5t-46.5 -44.5q-27 -48 -27 -135v-40h136v-40 h-136v-333q0 -51 20.5 -68.5t69.5 -19.5v-16q-58 3 -120 3q-63 0 -100 -3v16q39 2 54 21t15 67v333h-241v-333q0 -51 20.5 -68.5t69.5 -19.5v-16z" />
<glyph horiz-adv-x="1000" />
<glyph horiz-adv-x="1000" />
<glyph unicode="&#xd;" horiz-adv-x="1000" />
<glyph unicode=" "  horiz-adv-x="225" />
<glyph unicode="&#x09;" horiz-adv-x="225" />
<glyph unicode="&#xa0;" horiz-adv-x="225" />
<glyph unicode="!" horiz-adv-x="264" d="M164 202h-30q-27 408 -27 421q0 54 44 54q24 0 34.5 -11t10.5 -41q0 -14 -6 -89t-14 -177t-12 -157zM200 42q0 -23 -15 -38t-38 -15t-38.5 15.5t-15.5 38.5t15.5 38.5t38.5 15.5t38 -15.5t15 -39.5z" />
<glyph unicode="&#x22;" horiz-adv-x="320" d="M94 439h-23q-3 29 -9.5 83t-10.5 90.5t-4 43.5q0 41 38 41t38 -40q0 -8 -5 -44t-12.5 -91.5t-11.5 -82.5zM244 439h-23q-3 29 -9.5 83t-10.5 90.5t-4 43.5q0 41 38 41t38 -40q0 -8 -5 -44t-12.5 -91.5t-11.5 -82.5z" />
<glyph unicode="#" horiz-adv-x="566" d="M142 -26h-39l48 229h-109v58h122l29 138h-106v58h118l44 205h40l-44 -205h126l44 205h40l-44 -205h113v-58h-125l-30 -138h110v-58h-122l-49 -229h-39l48 229h-126zM233 399l-30 -138h127l29 138h-126z" />
<glyph unicode="$" horiz-adv-x="506" d="M91 170l6 -4q0 -66 40.5 -98t98.5 -34v260l-45 22q-127 62 -127 169q0 68 49.5 108.5t122.5 47.5v100h36v-98q84 -1 126.5 -32.5t42.5 -68.5q0 -27 -53 -46l-7 4q-1 102 -109 107v-254l34 -16q83 -39 115.5 -77.5t32.5 -89.5q0 -73 -51 -118t-131 -54v-95h-36v93 q-89 0 -145.5 36.5t-56.5 85.5q0 39 57 52zM393 156q0 41 -29.5 66.5t-91.5 54.5v-242q54 7 87.5 37t33.5 84zM123 496q0 -41 25 -68t83 -55l5 -3v235q-48 -6 -80.5 -35t-32.5 -74z" />
<glyph unicode="%" horiz-adv-x="842" d="M634 658l-377 -677h-44l377 677h44zM332 437q0 -92 -38.5 -145.5t-111.5 -53.5q-78 0 -114.5 54.5t-36.5 148.5q0 93 41 147t110 54q80 0 115 -57t35 -148zM283 433q0 90 -23.5 135.5t-78.5 45.5q-100 0 -100 -167q0 -181 102 -181q100 0 100 167zM811 191 q0 -92 -38.5 -145.5t-111.5 -53.5q-78 0 -114.5 54.5t-36.5 148.5q0 93 41 147t110 54q80 0 115 -57t35 -148zM762 187q0 90 -23.5 135.5t-78.5 45.5q-100 0 -100 -167q0 -181 102 -181q100 0 100 167z" />
<glyph unicode="&#x26;" horiz-adv-x="679" d="M464 64q-79 -76 -197 -76q-106 0 -162.5 58.5t-56.5 127.5t37 112.5t114 83.5q-63 85 -63 156t48 113t119 42q66 0 105.5 -33.5t39.5 -94.5q0 -103 -169 -181q43 -59 103 -130t102 -107q41 62 41 118q0 54 -54 85v7q25 31 54 31q26 0 41.5 -23.5t15.5 -59.5 q0 -87 -75 -181q65 -66 133 -66q21 0 38 8l4 -6q-10 -25 -34 -41t-49 -16q-32 0 -57 13t-78 60zM440 88q-105 94 -223 258q-102 -54 -102 -154q0 -65 49 -110t124 -45q96 0 152 51zM259 395q131 70 131 157q0 46 -24 69t-68 23q-40 0 -69.5 -25.5t-29.5 -69.5q0 -80 60 -154 z" />
<glyph unicode="'" horiz-adv-x="170" d="M94 439h-23q-3 29 -9.5 83t-10.5 90.5t-4 43.5q0 41 38 41t38 -40q0 -8 -5 -44t-12.5 -91.5t-11.5 -82.5z" />
<glyph unicode="(" horiz-adv-x="298" d="M290 -135l-9 -19q-236 96 -236 459q0 144 52.5 253t182.5 177l10 -18q-179 -107 -179 -410q0 -346 179 -442z" />
<glyph unicode=")" horiz-adv-x="298" d="M8 716l9 19q236 -96 236 -459q0 -144 -52.5 -253t-182.5 -177l-10 18q179 107 179 410q0 346 -179 442z" />
<glyph unicode="*" horiz-adv-x="385" d="M213 545q16 -7 58 -18q37 -9 50 -16t13 -22q0 -14 -9.5 -25.5t-23.5 -11.5q-6 0 -13 3.5t-11 7t-13.5 13.5t-14.5 15q-28 28 -43 37q2 -25 9 -57q12 -43 12 -54q0 -25 -33 -25q-32 0 -32 24q0 10 13 58q7 27 8 54q-16 -11 -44 -39l-10.5 -10.5l-9.5 -9.5l-7 -7t-6.5 -5.5 t-5.5 -3.5t-6 -2.5t-6 -0.5q-14 0 -24 11.5t-10 26.5q0 23 61 36q35 8 60 20q-12 6 -59 21q-46 13 -51 16q-13 7 -13 20t10 26t25 13q9 0 17 -6t19.5 -19t13.5 -15q28 -28 46 -39q-3 33 -9 60q-12 50 -12 53q0 26 32 26q33 0 33 -26q0 -6 -12 -54q-8 -29 -9 -59q27 18 46 39 q3 3 9.5 10t8.5 9.5t6.5 7t7 6t6.5 4t7 3t7 0.5q13 0 21.5 -11t8.5 -25t-13 -21.5t-48 -16.5q-38 -10 -60 -21z" />
<glyph unicode="+" horiz-adv-x="577" d="M313 57h-47v210h-212v47h212v211h47v-211h211v-47h-211v-210z" />
<glyph unicode="," horiz-adv-x="225" d="M174 28q0 -53 -33.5 -100.5t-91.5 -80.5l-12 13q73 56 73 111q0 23 -21 39q-28 21 -28 46q0 20 14.5 34t36.5 14q28 0 45 -19.5t17 -56.5z" />
<glyph unicode="-" horiz-adv-x="297" d="M247 221h-197v60h197v-60z" />
<glyph unicode="." horiz-adv-x="249" d="M178 42q0 -23 -15 -38t-38 -15t-38.5 15.5t-15.5 38.5t15.5 38.5t38.5 15.5t38 -15.5t15 -39.5z" />
<glyph unicode="/" horiz-adv-x="342" d="M326 738l-270 -853h-52l270 853h52z" />
<glyph unicode="0" d="M499 313q0 -151 -58.5 -238.5t-169.5 -87.5q-119 0 -175 89.5t-56 243.5q0 152 62.5 240.5t168.5 88.5q62 0 107.5 -27t71 -74.5t37.5 -105.5t12 -129zM431 307q0 151 -37.5 227.5t-125.5 76.5q-159 0 -159 -281q0 -305 163 -305q75 0 117 70t42 212z" />
<glyph unicode="1" d="M409 -1q-64 2 -131 2q-73 0 -149 -2v16q66 1 91 22.5t25 67.5v462q-71 -31 -136 -49l-7 20q98 49 166 99h41v-532q0 -47 19.5 -68t80.5 -22v-16z" />
<glyph unicode="2" d="M469 -1q-29 1 -207 1q-157 0 -206 -1v35q196 150 265.5 245.5t69.5 189.5q0 141 -131 141q-123 0 -123 -148l-7 -2q-50 12 -50 56q0 53 48.5 92.5t135.5 39.5q98 0 146.5 -47.5t48.5 -129.5q0 -92 -78 -192.5t-240 -221.5q118 2 328 2v-60z" />
<glyph unicode="3" d="M317 338q148 -26 148 -151q0 -94 -61.5 -147t-164.5 -53q-88 0 -141 31t-53 73q0 19 14 34.5t37 22.5l7 -3q0 -53 39.5 -86.5t99.5 -33.5q84 0 119.5 41.5t35.5 118.5q0 132 -168 132q-21 0 -43 -2v34q20 -2 43 -2q67 0 104 36t37 109q0 119 -125 119q-57 0 -87 -33 t-30 -90l-7 -3q-49 14 -49 50q0 42 50.5 78t128.5 36q90 0 138 -41t48 -113q0 -56 -30.5 -98t-89.5 -59z" />
<glyph unicode="4" d="M487 -1q-64 2 -112 2q-42 0 -118 -2v16q55 1 71 20t16 66v65h-296v35q125 215 179 330q21 45 21 73q0 17 -7 26l-1 8q18 22 42 22q14 0 25 -11t11 -30q0 -34 -46 -120q-33 -64 -162 -278h234v247h62v-247h85v-55h-85v-65q0 -44 16.5 -64.5t64.5 -21.5v-16z" />
<glyph unicode="5" d="M153 385q42 15 104 15q97 0 154 -51.5t57 -145.5q0 -95 -65 -155.5t-167 -60.5q-87 0 -134.5 31t-47.5 74q0 19 13.5 34.5t37.5 22.5l7 -3q0 -54 34 -87.5t94 -33.5q160 0 160 171q0 69 -46 111.5t-121 42.5q-67 0 -127 -22l30 304h303v-62h-267z" />
<glyph unicode="6" d="M418 498q0 55 -23 84t-79 29q-87 0 -132.5 -79.5t-51.5 -218.5q20 29 66 52t97 23q85 0 138.5 -50.5t53.5 -137.5q0 -92 -57 -152.5t-149 -60.5q-217 0 -217 296q0 47 7 94.5t25.5 97.5t46.5 88t73.5 62t102.5 24q79 0 118.5 -30t39.5 -73q0 -17 -14 -31t-38 -20z M131 289q0 -4 -0.5 -19.5t-0.5 -20.5q0 -41 6.5 -77t22.5 -71t48 -55.5t77 -20.5q60 0 98 42t38 131q0 75 -43 108t-102 33q-83 0 -144 -50z" />
<glyph unicode="7" d="M259 12q-23 -23 -54 -23q-17 0 -30 13t-13 38q0 58 49 166q46 99 191 364h-339v61h399v-40q-135 -247 -205 -424q-21 -53 -21 -101q0 -32 22 -47z" />
<glyph unicode="8" d="M326 342q69 -30 108 -70.5t39 -101.5q0 -84 -56.5 -133.5t-150.5 -49.5q-101 0 -151 47.5t-50 121.5q0 113 134 173q-107 58 -107 153q0 73 51 120t129 47q86 0 130.5 -41.5t44.5 -109.5q0 -49 -35 -90.5t-86 -65.5zM226 317q-102 -69 -102 -156q0 -63 39 -99.5 t107 -36.5q62 0 102 36t40 90t-43.5 90t-142.5 76zM300 354q92 72 92 140q0 52 -33.5 84.5t-87.5 32.5q-55 0 -87 -33.5t-32 -80.5q0 -43 33.5 -76t114.5 -67z" />
<glyph unicode="9" d="M117 140q0 -116 108 -116q87 0 131 83.5t50 229.5q-18 -33 -64 -58.5t-98 -25.5q-86 0 -139.5 48t-53.5 135q0 92 57 152t149 60q119 0 168 -79.5t49 -216.5q0 -49 -6.5 -96t-24 -97t-45 -87.5t-73 -61.5t-103.5 -24q-78 0 -122 31t-44 73q0 17 15.5 31.5t39.5 21.5z M407 361q0 4 0.5 15t0.5 16q0 41 -6.5 76t-22.5 69t-48 53.5t-77 19.5q-60 0 -98 -41.5t-38 -131.5q0 -73 43 -104t103 -31q81 0 143 59z" />
<glyph unicode=":" horiz-adv-x="269" d="M198 42q0 -23 -15 -38t-38 -15t-38.5 15.5t-15.5 38.5t15.5 38.5t38.5 15.5t38 -15.5t15 -39.5zM198 423q0 -23 -15 -38t-38 -15t-38.5 15.5t-15.5 38.5q0 22 15.5 38t38.5 16t38 -15.5t15 -39.5z" />
<glyph unicode=";" horiz-adv-x="269" d="M198 423q0 -23 -15 -38t-38 -15t-38.5 15.5t-15.5 38.5q0 22 15.5 38t38.5 16t38 -15.5t15 -39.5zM199 28q0 -53 -33.5 -100.5t-91.5 -80.5l-12 13q73 56 73 111q0 23 -21 39q-28 21 -28 46q0 20 14.5 34t36.5 14q28 0 45 -19.5t17 -56.5z" />
<glyph unicode="&#x3c;" horiz-adv-x="600" d="M481 70l-386 190v53l386 194v-54l-337 -165l337 -162v-56z" />
<glyph unicode="=" horiz-adv-x="600" d="M523 346h-446v47h446v-47zM523 191h-446v48h446v-48z" />
<glyph unicode="&#x3e;" horiz-adv-x="600" d="M120 507l385 -190v-52l-385 -195v55l335 165l-335 161v56z" />
<glyph unicode="?" horiz-adv-x="436" d="M205 194l-24 -11q-32 47 -32 87q0 39 22 65.5t83 69.5q83 58 83 127q0 49 -27 78.5t-76 29.5q-105 0 -105 -126l-7 -3q-29 6 -42.5 21.5t-13.5 33.5q0 46 43 80t128 34q72 0 119.5 -41.5t47.5 -102.5q0 -56 -25 -94.5t-98 -89.5q-4 -3 -17 -12t-18.5 -13t-16.5 -12.5 t-16 -15t-11.5 -15t-9 -18t-2.5 -19.5q0 -29 15 -53zM240 42q0 -23 -15 -38t-38 -15t-38.5 15.5t-15.5 38.5t15.5 38.5t38.5 15.5t38 -15.5t15 -39.5z" />
<glyph unicode="@" horiz-adv-x="790" d="M465 102q-21 -34 -63.5 -61t-84.5 -27q-53 0 -82 32t-29 85q0 100 59 192q32 50 83.5 80t109.5 30q55 0 87 -35q24 20 48 31l10 -4q-19 -50 -36 -115q-43 -169 -43 -225q0 -24 25 -24q38 0 76 43q34 37 53 106.5t19 139.5q0 102 -63.5 165t-178.5 63q-152 0 -251.5 -116 t-99.5 -290q0 -137 84.5 -219.5t218.5 -82.5q186 0 309 123l21 -19q-142 -148 -337 -148q-165 0 -259.5 93.5t-94.5 255.5q0 115 51.5 214.5t147 161t213.5 61.5q82 0 143.5 -26.5t92.5 -68t45.5 -83t14.5 -82.5q0 -98 -40.5 -181t-116.5 -130q-39 -24 -77 -24 q-28 0 -42.5 17.5t-14.5 43.5q0 14 2 24zM468 131l61 247q-35 24 -80 24q-77 0 -132 -93q-47 -81 -47 -170q0 -33 17 -56t49 -23q36 0 65.5 17t66.5 54z" />
<glyph unicode="A" horiz-adv-x="647" d="M219 -1q-64 2 -114 2q-25 0 -101 -2v15q39 1 58 22.5t36 67.5l155 420q38 105 51 144h48q17 -58 48 -143l148 -421q16 -45 36 -67t58 -23v-15q-76 2 -101 2q-66 0 -130 -2v15q77 2 77 40q0 17 -11 50l-38 109h-248l-38 -109q-10 -27 -10 -47q0 -19 21 -30.5t55 -12.5v-15 zM205 255h220l-109 316z" />
<glyph unicode="B" horiz-adv-x="587" d="M366 357q82 -9 126 -55t44 -113q0 -93 -68.5 -141t-188.5 -48q-6 0 -49 1t-66 1q-27 0 -117 -2v15q47 1 63.5 22t16.5 67v473q0 43 -16 59.5t-64 17.5v14q35 -2 111 -2q18 0 61 1t62 1q117 0 168.5 -41t51.5 -124q0 -52 -33.5 -90.5t-101.5 -55.5zM192 369h50q57 0 96 10 q95 29 95 115q0 89 -73 119q-35 16 -97 16h-71v-260zM192 330v-282q59 -6 102 -6q170 0 170 146q0 108 -120 133q-37 9 -104 9h-48z" />
<glyph unicode="C" horiz-adv-x="557" d="M533 136q7 -8 7 -18q0 -40 -58 -85.5t-142 -45.5q-142 0 -213.5 88.5t-71.5 247.5q0 167 77 262t210 95q91 0 140 -27t49 -68q0 -37 -53 -59l-7 3q0 57 -39.5 85t-93.5 28q-97 0 -154 -75t-57 -235q0 -79 18.5 -138t51 -91.5t69.5 -47.5t80 -15q119 0 182 96h5z" />
<glyph unicode="D" horiz-adv-x="662" d="M47 -1v16q47 1 63.5 22.5t16.5 67.5v478q0 41 -15.5 55t-64.5 15v16q55 -3 116 -3q17 0 56 1t55 1q166 0 249 -77.5t83 -252.5q0 -156 -76 -247t-243 -91q-17 0 -64 1t-63 1q-61 0 -113 -3zM192 48q38 -5 85 -5q133 0 194.5 64.5t61.5 223.5q0 268 -201 293q-41 5 -140 5 v-581z" />
<glyph unicode="E" horiz-adv-x="546" d="M499 0q-106 1 -318 1q-72 0 -134 -2v16q47 1 63.5 22.5t16.5 67.5v478q0 41 -15.5 55t-64.5 15v16q83 -4 152 -4q118 0 271 3q4 -59 11 -145h-17q-17 70 -48 86.5t-131 16.5h-93v-258h52q83 0 109 14.5t29 57.5h20q-2 -31 -2 -92t2 -91h-20q-3 42 -28.5 57.5t-108.5 15.5 h-53v-282q73 -8 171 -8q60 0 85 25.5t33 94.5h20q-2 -106 -2 -160z" />
<glyph unicode="F" horiz-adv-x="525" d="M282 -1q-62 2 -122 2q-39 0 -113 -2v16q47 1 63.5 22.5t16.5 67.5v478q0 41 -15.5 55t-64.5 15v16q83 -4 152 -4q114 0 269 3q2 -54 10 -145h-17q-17 70 -48.5 86.5t-131.5 16.5h-89v-273h52q83 0 109 15t29 58h20q-2 -31 -2 -92t2 -92h-20q-3 42 -28.5 57.5t-108.5 15.5 h-53v-203q0 -52 17 -74t73 -23v-16z" />
<glyph unicode="G" horiz-adv-x="643" d="M552 43q-95 -56 -207 -56q-142 0 -217 86t-75 258q0 162 81.5 255.5t217.5 93.5q91 0 141 -26t50 -66t-51 -62l-7 3q0 57 -39 85t-95 28q-115 0 -170.5 -87t-55.5 -229q0 -138 56.5 -213.5t171.5 -75.5q85 0 127 20v155q0 47 -17.5 68.5t-71.5 22.5v15q74 -2 120 -2 q38 0 102 2v-15q-70 -3 -70 -91q0 -150 9 -169z" />
<glyph unicode="H" horiz-adv-x="717" d="M272 -1q-64 2 -112 2q-39 0 -113 -2v16q47 1 63.5 22.5t16.5 67.5v478q0 41 -15.5 55t-64.5 15v16q37 -2 113 -2q75 0 112 2v-16q-50 -1 -65 -14.5t-15 -55.5v-213h331v213q0 41 -15.5 55t-65.5 15v16q37 -2 114 -2q74 0 111 2v-16q-50 -1 -64.5 -14.5t-14.5 -55.5v-478 q0 -46 16 -67.5t63 -22.5v-16q-64 2 -111 2q-40 0 -114 -2v16q47 1 64 22.5t17 67.5v223h-331v-223q0 -46 16.5 -67.5t63.5 -22.5v-16z" />
<glyph unicode="I" horiz-adv-x="319" d="M272 -1q-64 2 -112 2q-39 0 -113 -2v16q47 1 63.5 22.5t16.5 67.5v478q0 41 -15.5 55t-64.5 15v16q37 -2 113 -2q75 0 112 2v-16q-50 -1 -65 -14.5t-15 -55.5v-478q0 -46 16.5 -67.5t63.5 -22.5v-16z" />
<glyph unicode="J" horiz-adv-x="312" d="M192 103q0 -99 -18 -139q-19 -44 -60 -63.5t-87 -19.5q-19 0 -27 3v6q34 10 52 18.5t38 30t28.5 61t8.5 101.5v476q0 41 -19 58t-69 18v16q37 -2 119 -2q77 0 114 2v-16q-50 -1 -65 -14.5t-15 -55.5v-480z" />
<glyph unicode="K" horiz-adv-x="624" d="M272 -1q-64 2 -112 2q-39 0 -113 -2v16q47 1 63.5 22.5t16.5 67.5v478q0 41 -15.5 55t-64.5 15v16q37 -2 113 -2q75 0 112 2v-16q-50 -1 -65 -14.5t-15 -55.5v-478q0 -46 16.5 -67.5t63.5 -22.5v-16zM620 30q-32 -35 -70 -35q-31 0 -59 19t-72 71q-67 78 -162 208 q-21 29 -42 44v11q35 10 57 31q49 47 113 126q69 87 69 116q0 17 -13.5 23.5t-53.5 8.5v16q42 -2 109 -2q63 0 105 2v-16q-26 -3 -48 -22.5t-73 -80.5q-87 -104 -180 -206q105 -149 204 -248q57 -57 113 -59z" />
<glyph unicode="L" horiz-adv-x="524" d="M496 0q-106 1 -315 1q-72 0 -134 -2v16q47 1 63.5 22.5t16.5 67.5v478q0 41 -15.5 55t-64.5 15v16q37 -2 112 -2q78 0 115 2v-16q-50 -1 -66 -15t-16 -55v-536q63 -5 172 -5q60 0 83 25.5t31 94.5h21q-3 -80 -3 -162z" />
<glyph unicode="M" horiz-adv-x="846" d="M245 -1q-62 2 -117 2q-26 0 -100 -2v16q46 1 63.5 23t21.5 67q41 457 41 493q-19 41 -72 44l-2 7q38 26 81 26q27 0 41 -10.5t26 -31.5q29 -51 85.5 -196t110.5 -305q59 168 195 536q32 -2 81 -2q20 0 76 3v-16q-43 -1 -57 -18t-14 -59q0 -31 27 -471q3 -48 18.5 -68.5 t61.5 -21.5v-16q-64 2 -116 2q-37 0 -113 -2v16q48 1 64 22t16 68q0 33 -10.5 234.5t-14.5 246.5q-193 -525 -208 -573h-37q-78 255 -198 535q-30 -387 -30 -443q0 -46 16.5 -67.5t63.5 -22.5v-16z" />
<glyph unicode="N" horiz-adv-x="724" d="M262 -1q-64 2 -102 2q-18 0 -53.5 -1t-54.5 -1v16q47 1 64.5 23t17.5 67v499q-27 35 -79 38l-2 6q34 29 79 29q40 0 77 -41q82 -90 346 -506q-6 87 -6 434q0 45 -16.5 67t-63.5 23v15q36 -2 107 -2q38 0 102 2v-15q-47 -1 -63.5 -23t-16.5 -67v-567h-36 q-233 372 -383 569q2 -72 2 -461q0 -46 17 -67.5t64 -22.5v-16z" />
<glyph unicode="O" horiz-adv-x="661" d="M605 330q0 -158 -70 -250.5t-202 -92.5q-141 0 -209.5 95t-68.5 255q0 158 73 251t200 93q76 0 131.5 -28t86.5 -78.5t45 -111t14 -133.5zM533 321q0 154 -51 238t-154 84q-98 0 -149.5 -76.5t-51.5 -219.5q0 -148 51 -235t155 -87q91 0 145.5 74t54.5 222z" />
<glyph unicode="P" horiz-adv-x="580" d="M192 331q21 -2 62 -2q112 0 161.5 44.5t49.5 115.5q0 89 -80 122q-41 18 -110 18h-83v-298zM192 291v-179q0 -52 17 -74t73 -23v-16q-62 2 -122 2q-39 0 -113 -2v16q47 1 63.5 22.5t16.5 67.5v472q0 43 -16 59.5t-64 17.5v14q35 -2 112 -2q19 0 68 1t67 1q239 0 239 -171 q0 -89 -65.5 -148.5t-214.5 -59.5q-38 0 -61 2z" />
<glyph unicode="Q" horiz-adv-x="661" d="M605 330q0 -122 -42.5 -206.5t-123.5 -117.5q63 -48 102 -67.5t77 -19.5q30 0 47 9l6 -5q-7 -25 -27 -41.5t-46 -16.5q-42 0 -88.5 25t-135.5 100q-39 -3 -41 -3q-141 0 -209.5 95t-68.5 255q0 158 73 251t200 93q76 0 131.5 -28t86.5 -78.5t45 -111t14 -133.5zM533 321 q0 154 -51 238t-154 84q-98 0 -149.5 -76.5t-51.5 -219.5q0 -148 51 -235t155 -87q91 0 145.5 74t54.5 222z" />
<glyph unicode="R" horiz-adv-x="632" d="M282 -1q-62 2 -123 2q-38 0 -112 -2v16q47 1 63.5 22.5t16.5 67.5v472q0 43 -16 59.5t-64 17.5v14q35 -2 111 -2q18 0 65 1t66 1q230 0 230 -166q0 -137 -163 -180q36 -4 68 -61q65 -114 73 -127q35 -58 62 -80q24 -19 68 -19l3 -5q-33 -37 -73 -37q-33 0 -57 20t-56 74 q-13 23 -38.5 72t-43.5 80t-30 42q-29 25 -83 25q-34 0 -57 1v-195q0 -52 17 -74t73 -23v-16zM192 347q20 -2 59 -2q198 0 198 148q0 136 -173 136h-84v-282z" />
<glyph unicode="S" horiz-adv-x="512" d="M86 173l6 -5q0 -73 48.5 -106.5t113.5 -33.5q67 0 112.5 32.5t45.5 98.5q0 44 -33.5 74t-99.5 61l-82 40q-133 63 -133 178q0 82 62.5 125.5t148.5 43.5q91 0 137 -33.5t46 -74.5q0 -31 -49 -49l-7 4q-1 61 -37.5 88t-92.5 27q-60 0 -104 -32t-44 -87q0 -44 27.5 -74.5 t87.5 -59.5l79 -38q88 -42 122 -82.5t34 -95.5q0 -87 -66 -137t-163 -50q-92 0 -152.5 39t-60.5 92q0 42 54 55z" />
<glyph unicode="T" horiz-adv-x="579" d="M402 -1q-64 2 -115 2q-67 0 -109 -2v16q47 1 63 22.5t16 67.5v525h-55q-66 0 -93.5 -7.5t-40.5 -27.5t-25 -72h-20q7 86 11 145q153 -2 256 -2q101 0 254 2q5 -78 12 -145h-20q-17 71 -46 89t-121 18h-47v-525q0 -46 16.5 -67.5t63.5 -22.5v-16z" />
<glyph unicode="U" horiz-adv-x="684" d="M671 653q-47 -1 -63 -23.5t-16 -68.5v-337q0 -78 -19 -120q-48 -115 -217 -115q-168 0 -216 112q-21 49 -21 125v357q0 42 -15 55.5t-65 14.5v16q37 -2 113 -2q75 0 112 2v-16q-50 -1 -65 -14.5t-15 -55.5v-354q0 -73 15 -110q35 -85 165 -85q124 0 162 85q15 35 15 105 v339q0 45 -16 67t-63 23v15q74 -2 110 -2q39 0 99 2v-15z" />
<glyph unicode="V" horiz-adv-x="647" d="M342 -4h-45q-16 59 -49 147l-149 419q-12 33 -19.5 48.5t-25 28.5t-44.5 14v16q76 -2 98 -2q64 0 128 2v-16q-78 -2 -78 -44q0 -14 14 -54l158 -451l161 444q15 42 15 64q0 40 -75 41v16q64 -2 111 -2q19 0 95 2v-16q-35 -1 -52.5 -22.5t-35.5 -68.5l-155 -418 q-32 -84 -52 -148z" />
<glyph unicode="W" horiz-adv-x="933" d="M292 -4h-46q-3 12 -39 147l-116 419q-13 46 -31.5 68t-54.5 23v16q76 -2 97 -2q62 0 126 2v-16q-46 -1 -59 -12.5t-13 -34.5q0 -17 9 -53l114 -436l126 386q31 94 48 165h46q24 -91 48 -167l122 -384l115 426q11 39 11 63q0 46 -74 47v16q64 -2 112 -2q19 0 95 2v-16 q-35 -1 -53.5 -23t-31.5 -68l-119 -418q-17 -58 -38 -148h-46q-13 57 -43 146l-130 392l-131 -393q-28 -79 -44 -145z" />
<glyph unicode="X" horiz-adv-x="645" d="M185 619q0 -4 1.5 -9.5t4 -9.5t7 -11.5t7.5 -12t9.5 -14t9.5 -13.5l110 -160l107 155q41 60 41 75q0 19 -18 27t-60 9v14q64 -2 114 -2q18 0 94 2v-14q-24 -1 -43.5 -20.5t-55.5 -70.5l-152 -214l169 -244q22 -33 33.5 -47.5t32.5 -28.5t45 -15v-15q-38 2 -122 2 q-58 0 -122 -2v15q80 2 80 35q0 16 -37 70l-127 185l-122 -179q-42 -61 -42 -79q0 -19 18.5 -25t58.5 -7v-15q-64 2 -113 2q-36 0 -110 -2v15q34 3 58 23.5t57 67.5l168 238l-151 221q-25 37 -36.5 51.5t-28 26t-36.5 12.5v14q38 -2 115 -2q55 0 119 2v-14q-44 -1 -63.5 -9 t-19.5 -27z" />
<glyph unicode="Y" horiz-adv-x="621" d="M417 -1q-64 2 -113 2q-38 0 -112 -2v16q47 1 63.5 22.5t16.5 67.5v171l-170 288q-19 32 -29.5 47t-29 29t-39.5 15v14q38 -2 113 -2q47 0 111 2v-14q-73 -2 -73 -36q0 -23 28 -72l133 -223l130 219q32 54 32 75q0 35 -70 37v14q64 -2 114 -2q17 0 95 2v-14 q-25 -1 -46.5 -22.5t-52.5 -68.5l-181 -287v-172q0 -46 16 -67.5t64 -22.5v-16z" />
<glyph unicode="Z" horiz-adv-x="533" d="M499 -1q-164 2 -211 2q-128 0 -266 -2v19l384 608h-150q-101 0 -132.5 -16.5t-47.5 -86.5h-18q7 83 11 146q164 -2 210 -2q82 0 220 2v-20l-386 -606h199q99 0 131.5 17.5t49.5 88.5h17q-9 -110 -11 -150z" />
<glyph unicode="[" horiz-adv-x="280" d="M242 -140h-160v860h160v-31h-98v-799h98v-30z" />
<glyph unicode="\" horiz-adv-x="342" d="M264 -115l-260 823h52l260 -823h-52z" />
<glyph unicode="]" horiz-adv-x="280" d="M38 720h160v-860h-160v31h98v799h-98v30z" />
<glyph unicode="^" horiz-adv-x="509" d="M426 358h-53l-117 259l-119 -259h-55l149 310h52z" />
<glyph unicode="_" horiz-adv-x="496" d="M498 -121h-500v48h500v-48z" />
<glyph unicode="`" horiz-adv-x="300" d="M244 542l-11 -10q-39 26 -95 76t-84 85l67 42q44 -89 123 -193z" />
<glyph unicode="a" horiz-adv-x="505" d="M352 67q-13 -30 -55 -55t-92 -25q-69 0 -113 37.5t-44 96.5q0 140 242 140q31 0 55 -4q1 20 1 46q0 70 -16 97q-27 42 -99 42q-88 0 -133 -67l-15 7q7 39 48.5 74t113.5 35q76 0 119.5 -32t43.5 -112q0 -14 -1.5 -91.5t-1.5 -127.5q0 -59 18.5 -79t66.5 -22v-9 q-28 -26 -67 -26q-32 0 -47.5 18t-23.5 57zM346 95q0 3 -0.5 53t-0.5 77q-18 2 -31 2q-199 0 -199 -99q0 -41 28 -66t79 -25q82 0 124 58z" />
<glyph unicode="b" horiz-adv-x="547" d="M151 33q-18 -31 -58 -49l-5 4q10 33 10 125v490q0 55 -13.5 74.5t-60.5 20.5v9q50 42 91 42q27 0 35 -18.5t8 -80.5v-240q25 32 67 55t91 23q88 0 135 -60.5t47 -180.5q0 -119 -56 -188t-147 -69q-88 0 -144 43zM158 74q54 -37 127 -37q64 0 105 50.5t41 160.5 q0 96 -38 142.5t-99 46.5q-90 0 -136 -61v-302z" />
<glyph unicode="c" horiz-adv-x="452" d="M422 105q6 -6 6 -16q0 -28 -48 -65t-121 -37q-95 0 -152.5 63t-57.5 181q0 125 65 192.5t161 67.5q71 0 107 -23t36 -58q0 -33 -52 -59l-8 5q0 95 -98 95q-63 0 -104.5 -48.5t-41.5 -153.5t44 -158t117 -53q85 0 140 67h7z" />
<glyph unicode="d" horiz-adv-x="560" d="M398 66q-26 -35 -67 -55.5t-87 -20.5q-79 0 -137 59t-58 181q0 118 62 188t162 70q73 0 119 -38v153q0 55 -14 74.5t-60 20.5v9q48 42 91 42q26 0 34.5 -19t8.5 -80v-512q0 -62 16.5 -85t66.5 -24v-9q-24 -26 -67 -26q-61 0 -70 72zM392 95v313q-48 37 -118 37 q-66 0 -111.5 -48.5t-45.5 -151.5q0 -108 40 -156.5t101 -48.5q84 0 134 55z" />
<glyph unicode="e" horiz-adv-x="482" d="M112 256q1 -110 45.5 -164t122.5 -54q97 0 152 67h5q5 -4 5 -17q0 -29 -51.5 -65t-125.5 -36q-106 0 -161 67.5t-55 188.5q0 116 57.5 182t149.5 66q187 0 187 -208q0 -27 -34 -27h-297zM113 288q64 1 145.5 2.5t93.5 1.5q22 0 22 19q0 142 -122 142q-48 0 -91 -36.5 t-48 -128.5z" />
<glyph unicode="f" horiz-adv-x="312" d="M264 -1q-58 3 -120 3q-63 0 -100 -3v16q39 2 54 21t15 67v333h-75v21q42 9 57.5 34t22.5 87q10 89 58 130.5t111 41.5q59 0 82.5 -19.5t23.5 -42.5q0 -35 -55 -46l-6 4q0 39 -17 52t-45 13q-51 0 -79 -53q-17 -33 -17 -117v-65h126v-40h-126v-333q0 -51 20.5 -68.5 t69.5 -19.5v-16z" />
<glyph unicode="g" horiz-adv-x="488" d="M436 508h8q19 -19 19 -39q0 -43 -52 -43q-30 0 -52 5q50 -31 50 -106q0 -55 -36 -98.5t-115 -53.5q-24 -3 -51 -3q-23 -8 -42 -26.5t-19 -32.5q0 -21 19 -30q20 -9 116 -12q37 -1 61 -4t49.5 -10.5t40 -20t24 -34.5t9.5 -53q0 -70 -65.5 -116.5t-162.5 -46.5 q-101 0 -154.5 36t-53.5 86q0 35 25.5 59.5t62.5 34.5l5 -5q-31 -33 -31 -71q0 -46 38 -74t111 -28q80 0 122 32t42 76q0 47 -32.5 63t-145.5 23q-87 5 -113 20q-32 18 -32 53q0 52 86 89q-109 46 -109 146q0 72 47.5 117.5t131.5 45.5q55 0 105 -19q87 0 94 40zM345 325 q0 64 -30 95t-81 31q-49 0 -80 -30t-31 -93q0 -61 31.5 -92t79.5 -31q49 0 80 30t31 90z" />
<glyph unicode="h" horiz-adv-x="572" d="M248 -1q-57 3 -109 3q-63 0 -100 -3v16q39 2 54.5 21.5t15.5 66.5v501q0 55 -13.5 74t-59.5 20v9q50 42 92 42q26 0 33.5 -18.5t7.5 -80.5v-246q26 35 71 59.5t105 24.5q82 0 111 -60q15 -33 15 -97v-186q0 -52 7 -76q14 -42 78 -42v-9q-31 -26 -65 -26q-56 0 -73 51 q-7 22 -7 103v161q0 54 -10 84q-17 45 -81 45q-92 0 -151 -59v-278q0 -44 17 -63.5t62 -20.5v-16z" />
<glyph unicode="i" horiz-adv-x="281" d="M260 -1q-59 3 -111 3q-62 0 -100 -3v16q40 2 55.5 21t15.5 67v204q0 73 -17 101t-64 28v8q45 40 86 40q42 0 52 -49q2 -22 2 -44v-295q0 -43 17.5 -61.5t63.5 -19.5v-16zM184 636q0 -22 -14 -36t-35 -14q-22 0 -36.5 14t-14.5 36t14.5 37t36.5 15q21 0 35 -15t14 -37z " />
<glyph unicode="j" horiz-adv-x="265" d="M8 -201v7q43 18 62 34t32 61.5t13 130.5v275q0 73 -16.5 101t-63.5 28v8q45 40 86 40q51 0 54 -65q1 -17 1 -51v-386q0 -80 -19 -114q-40 -72 -129 -72q-12 0 -20 3zM179 636q0 -22 -13.5 -36t-34.5 -14q-22 0 -36.5 14t-14.5 36t14.5 37t36.5 15q21 0 34.5 -15t13.5 -37 z" />
<glyph unicode="k" horiz-adv-x="528" d="M242 -1q-58 3 -110 3q-63 0 -100 -3v16q39 2 54.5 21t15.5 67v500q0 56 -13.5 75t-59.5 20v9q50 42 92 42q26 0 33.5 -18.5t7.5 -80.5v-554q0 -43 16.5 -61.5t63.5 -19.5v-16zM527 43q-39 -51 -84 -51q-27 0 -51 14.5t-57 53.5q-25 29 -80.5 102.5t-73.5 88.5v8 q14 3 37 18q22 15 60.5 48t57.5 54q36 39 36 59q0 16 -12 25l1 6q24 14 47 14q43 0 43 -33q0 -25 -61 -79q-86 -78 -135 -114q72 -98 128 -158q52 -56 94 -56q20 0 46 7z" />
<glyph unicode="l" horiz-adv-x="269" d="M252 -1q-60 3 -110 3q-63 0 -100 -3v16q39 2 54.5 21t15.5 67v501q0 54 -14.5 72t-61.5 19v9q54 45 95 45q26 0 33.5 -18.5t7.5 -80.5v-554q0 -43 17 -61.5t63 -19.5v-16z" />
<glyph unicode="m" horiz-adv-x="868" d="M254 -1q-60 3 -106 3q-67 0 -104 -3v16q43 2 59 20.5t16 67.5v204q0 73 -17 101t-64 28v8q45 40 81 40q11 0 19 -2.5t17 -10t14 -25t6 -44.5q62 86 176 86q44 0 75.5 -21t41.5 -64q62 85 174 85q81 0 110 -60q15 -37 15 -97v-186q0 -52 7 -76q12 -42 78 -42v-9 q-31 -26 -65 -26q-56 0 -74 51q-6 19 -6 103v161q0 56 -11 84q-16 45 -78 45q-89 0 -147 -58q3 -19 3 -47v-235q0 -42 16.5 -61t58.5 -20v-16q-59 3 -105 3q-68 0 -105 -3v16q44 2 59.5 20.5t15.5 67.5v204q0 54 -10 84q-17 45 -79 45q-87 0 -147 -58v-282q0 -42 16.5 -61 t59.5 -20v-16z" />
<glyph unicode="n" horiz-adv-x="582" d="M254 -1q-60 3 -106 3q-67 0 -104 -3v16q43 2 59 20.5t16 67.5v204q0 73 -17 101t-64 28v8q45 40 81 40q11 0 19 -2.5t17 -10t14 -25t6 -44.5q24 35 70 60.5t111 25.5q81 0 110 -60q15 -37 15 -97v-186q0 -49 8 -76q12 -42 77 -42v-9q-31 -26 -65 -26q-57 0 -73 51 q-6 19 -6 103v161q0 51 -14 82q-8 22 -30 34.5t-49 12.5q-91 0 -151 -58v-282q0 -42 16.5 -61t59.5 -20v-16z" />
<glyph unicode="o" horiz-adv-x="525" d="M476 245q0 -117 -55.5 -187.5t-159.5 -70.5q-107 0 -159.5 66.5t-52.5 188.5q0 117 58.5 183t158.5 66q210 0 210 -246zM409 246q0 111 -37 159t-108 48q-72 0 -109.5 -52.5t-37.5 -146.5q0 -116 34 -172.5t111 -56.5q75 0 111 60t36 161z" />
<glyph unicode="p" horiz-adv-x="558" d="M255 -209q-60 3 -116 3q-68 0 -105 -3v16q43 3 59 21t16 67v414q0 68 -16 97.5t-65 29.5v8q43 40 81 40q26 0 38.5 -18t17.5 -57q67 79 155 79q38 0 69.5 -11.5t59.5 -37.5t44 -75.5t16 -119.5q0 -118 -57 -183.5t-156 -65.5q-79 0 -127 38v-140q0 -47 19 -65.5t67 -20.5 v-16zM169 75q49 -37 126 -37q62 0 104.5 49.5t42.5 145.5q0 108 -38 156t-97 48q-87 0 -138 -60v-302z" />
<glyph unicode="q" horiz-adv-x="547" d="M390 100v309q-49 35 -120 35q-69 0 -111 -51t-42 -163q0 -94 43 -140.5t106 -46.5q75 0 124 57zM525 -209q-58 3 -105 3q-80 0 -116 -3v16q46 3 66 22.5t20 67.5v169q-47 -73 -143 -73q-89 0 -143.5 61t-54.5 178q0 119 63 187.5t160 68.5q36 0 63 -8t37 -14.5t25 -19.5 q15 29 54 48l9 -4q-11 -37 -11 -124v-472q0 -43 17 -64t59 -23v-16z" />
<glyph unicode="r" horiz-adv-x="361" d="M257 -1q-59 3 -103 3q-58 0 -99 -3v16q37 2 50.5 22.5t13.5 67.5v201q0 73 -16.5 101.5t-63.5 28.5v9q46 39 84 39q51 0 53 -89q17 36 50.5 64.5t73.5 28.5q26 0 40 -11.5t14 -31.5q0 -32 -39 -57l-5 2q-12 30 -45 30q-21 0 -47.5 -15.5t-39.5 -40.5v-268q0 -40 16.5 -60 t62.5 -21v-16z" />
<glyph unicode="s" horiz-adv-x="430" d="M98 132l7 -4q0 -55 35.5 -79t85.5 -24q44 0 78 22t34 67q0 61 -96 95l-61 21q-112 39 -112 124q0 64 49 100.5t119 36.5q71 0 105 -24.5t34 -57.5q0 -25 -46 -44l-7 3q0 86 -95 86q-43 0 -73 -20.5t-30 -60.5q0 -60 86 -89l60 -20q68 -24 96.5 -54.5t28.5 -75.5 q0 -71 -52 -109t-137 -38q-76 0 -117 31t-41 65q0 17 11.5 28t37.5 21z" />
<glyph unicode="t" horiz-adv-x="317" d="M318 46q-44 -56 -105 -56q-43 0 -67 18.5t-32 60.5q-3 24 -3 58v309h-76v21q35 8 51 17t32 36t30 81h23v-115h125v-40h-125v-291q0 -34 5 -59q10 -48 66 -48q30 0 69 15z" />
<glyph unicode="u" horiz-adv-x="577" d="M419 65q-61 -78 -168 -78q-42 0 -76.5 16t-49.5 45q-18 31 -18 103v166q0 52 -2 66q-4 29 -20 41t-51 12v8q14 15 40 27.5t51 12.5q39 0 41 -44q1 -19 1 -68v-202q0 -58 14 -89q24 -42 86 -42q95 0 146 56v229q0 37 -3 61q-3 27 -20 39t-54 12v8q15 14 42 27t52 13 q40 0 42 -45q1 -18 1 -97v-217q0 -53 18.5 -75.5t65.5 -22.5v-9q-25 -26 -66 -26q-63 0 -72 73z" />
<glyph unicode="v" horiz-adv-x="496" d="M266 -4h-42q-103 306 -144 381q-17 31 -32.5 45t-43.5 14v9q39 39 65 39q14 0 24.5 -7t15.5 -14.5t13 -22.5q21 -43 46 -111q47 -129 88 -256q50 102 107 232q31 72 31 105q0 28 -24 39l-1 8q31 27 65 27t34 -37q0 -26 -15.5 -65t-54.5 -117q-67 -134 -132 -269z" />
<glyph unicode="w" horiz-adv-x="746" d="M234 -4h-42q-80 317 -110 382q-14 30 -30 43.5t-42 14.5v9q37 39 66 39q34 0 54 -45q17 -38 37 -110q35 -126 58 -243q138 355 148 385h42q7 -20 19.5 -57.5t42 -125t68.5 -204.5q48 116 79 220q19 65 19 106q0 30 -25 39l-1 8q35 27 65 27q34 0 34 -38q0 -41 -55 -181 q-23 -59 -47 -119t-36.5 -91t-23.5 -60h-42q-30 108 -128 380q-145 -365 -150 -379z" />
<glyph unicode="x" horiz-adv-x="511" d="M362 430q39 53 70 53q33 0 52 -47l-4 -6q-59 -4 -99 -50q-38 -44 -93 -124q61 -96 113 -166q21 -27 41.5 -36t51.5 -10l3 -6q-32 -45 -71 -45q-32 0 -63 43q-16 23 -116 172q-75 -117 -116 -171q-35 -45 -69 -45q-41 0 -55 54l7 7q11 -4 23 -4q43 0 76 42q47 58 110 148 q-69 109 -93 141q-21 28 -37.5 37t-46.5 12l-4 7q36 47 68 47q17 0 30 -11t32 -40l93 -145q70 106 97 143z" />
<glyph unicode="y" horiz-adv-x="488" d="M233 2q-108 290 -153 375q-16 30 -32.5 44.5t-43.5 14.5v8q35 40 68 40q12 0 22 -7.5t15 -14.5t13 -22q14 -25 40 -92q106 -274 107 -277q5 13 37 92.5t54 140.5q26 73 26 103q0 29 -25 42l-1 8q37 27 68 27q12 0 22 -9t10 -30q0 -10 -3 -24t-6.5 -25.5t-11.5 -31 t-12.5 -30.5t-15 -35t-14.5 -33q-11 -26 -40 -95t-45.5 -106t-43.5 -94t-53 -104q-20 -37 -41 -56.5t-32.5 -22.5t-29.5 -3q-22 0 -39.5 19.5t-20.5 45.5l6 4q16 -7 34 -7q58 0 97 69q31 55 44 86z" />
<glyph unicode="z" horiz-adv-x="473" d="M451 125q-2 -77 -20.5 -101t-75.5 -24q-22 0 -104.5 0.5t-121.5 0.5t-91 -2l-6 12q39 47 79 104l235 325q-70 0 -130 -3q-72 -3 -97.5 -20t-38.5 -69h-15q-7 31 -7 55q0 48 15.5 61.5t63.5 13.5q14 0 50 -0.5t49 -0.5q89 0 199 2l5 -13q-56 -72 -75 -97l-235 -325 q40 -2 125 -2q84 0 119 20q42 24 63 63h14z" />
<glyph unicode="{" horiz-adv-x="311" d="M22 283v14q53 6 68.5 37t15.5 112v120q0 82 34.5 123t132.5 41v-22q-63 0 -84 -29t-21 -111v-147q0 -65 -17.5 -91t-69.5 -39q50 -12 69 -37.5t19 -92.5v-153q0 -73 22 -103t82 -30v-23q-92 0 -128.5 35t-36.5 117v141q0 68 -18 101t-68 37z" />
<glyph unicode="|" horiz-adv-x="219" d="M137 -140h-55v860h55v-860z" />
<glyph unicode="}" horiz-adv-x="311" d="M289 299v-14q-53 -6 -68.5 -37t-15.5 -112v-120q0 -82 -34.5 -123t-132.5 -41v22q63 0 84 29t21 111v147q0 65 17.5 91t69.5 39q-50 12 -69 37.5t-19 92.5v153q0 73 -22 103t-82 30v23q92 0 128.5 -35t36.5 -117v-141q0 -68 18 -101t68 -37z" />
<glyph unicode="~" horiz-adv-x="576" d="M93 231l-36 33q58 86 134 86q24 0 45 -8t67 -35q56 -31 83 -31q51 0 98 72l35 -33q-58 -86 -134 -86q-41 0 -98 33q-44 25 -61.5 32.5t-36.5 7.5q-54 0 -96 -71z" />
<glyph unicode="&#xa1;" horiz-adv-x="264" d="M100 281h30q27 -408 27 -421q0 -54 -44 -54q-24 0 -34.5 11t-10.5 41q0 14 6 89t14 177t12 157zM64 441q0 23 15 38t38 15t38.5 -15.5t15.5 -38.5q0 -22 -15.5 -38t-38.5 -16t-38 15.5t-15 39.5z" />
<glyph unicode="&#xa2;" horiz-adv-x="476" d="M252 -97v86q-85 8 -135 70t-50 172t52 176t133 80v89h36v-85h5q70 0 104 -23t34 -58q0 -18 -8.5 -28.5t-35.5 -24.5l-10 3q0 88 -89 93v-417h5q83 0 140 69h7q1 -2 3 -4q1 -1 1.5 -2t1 -3.5t0.5 -6.5q0 -27 -44.5 -63t-113.5 -39v-84h-36zM132 249q0 -91 32 -143.5 t88 -65.5v411q-53 -10 -86.5 -59t-33.5 -143z" />
<glyph unicode="&#xa3;" horiz-adv-x="566" d="M509 -1q-66 2 -239 2q-182 0 -237 -2v54q40 4 53 8q39 12 63.5 66.5t24.5 137.5h-100v42h100q0 5 -5 73.5t-5 89.5q0 87 55.5 133t144.5 46q88 0 126 -32.5t38 -80.5q0 -35 -57 -51l-7 4q-1 124 -103 124q-134 0 -134 -133q0 -15 4.5 -84.5t5.5 -88.5h151v-42h-152 q-2 -31 -5 -51.5t-12.5 -51t-29.5 -56.5t-51 -47q51 2 371 4v-64z" />
<glyph unicode="&#xa4;" horiz-adv-x="610" d="M502 68l-59 60q-57 -50 -138 -50q-80 0 -138 49l-59 -60l-31 30l59 63q-49 62 -49 144q0 81 49 143l-59 63l31 30l58 -61q58 51 139 51q79 0 137 -49l59 59l30 -29l-58 -63q49 -60 49 -144q0 -82 -49 -144l60 -63zM474 304q0 79 -47.5 131.5t-121.5 52.5q-75 0 -123 -52 t-48 -130q0 -81 48 -133.5t123 -52.5q74 0 121.5 52t47.5 132z" />
<glyph unicode="&#xa5;" horiz-adv-x="622" d="M416 -1q-64 2 -113 2q-36 0 -110 -2v16q47 1 63.5 22.5t16.5 67.5v97h-181v33h181v21l-34 56h-147v33h127l-110 183q-23 39 -33 53t-26 25.5t-37 12.5v14q38 -2 112 -2q46 0 110 2v-14q-75 -1 -75 -36q0 -22 31 -72l125 -210l127 206q32 52 32 75q0 35 -70 37v14 q64 -2 112 -2q14 0 92 2v-14q-25 -1 -44.5 -21.5t-51.5 -69.5l-120 -183h133v-33h-154l-36 -55v-22h190v-33h-190v-97q0 -46 16 -67.5t64 -22.5v-16z" />
<glyph unicode="&#xa6;" horiz-adv-x="219" d="M137 360h-55v360h55v-360zM137 -140h-55v360h55v-360z" />
<glyph unicode="&#xa7;" horiz-adv-x="456" d="M216 -177q-73 0 -116 31t-43 65q0 38 54 50l7 -4q1 -107 104 -107q45 0 75.5 27t30.5 63q0 31 -21 62t-80 82l-88 77q-98 85 -98 158q0 95 106 140q-54 53 -54 112q0 56 48 96t119 40q72 0 108.5 -28.5t36.5 -64.5q0 -14 -14 -27.5t-38 -19.5l-7 4q-4 102 -96 102 q-41 0 -70 -23t-29 -63q0 -32 16.5 -59t63.5 -63l74 -57q71 -54 99 -92.5t28 -78.5q0 -50 -28 -85.5t-86 -64.5q69 -64 69 -127q0 -57 -47 -101t-124 -44zM294 117q38 20 56.5 51t18.5 62q0 25 -16.5 52t-69.5 70l-65 52q-46 38 -49 41q-68 -30 -68 -101q0 -54 69 -116 l51 -46q53 -46 73 -65z" />
<glyph unicode="&#xa8;" horiz-adv-x="300" d="M107 619q0 -19 -12.5 -31.5t-31.5 -12.5t-31 12.5t-12 31.5t12 31.5t31 12.5t31.5 -12.5t12.5 -31.5zM280 619q0 -19 -12.5 -31.5t-31.5 -12.5t-31 12.5t-12 31.5t12 31.5t31 12.5t31.5 -12.5t12.5 -31.5z" />
<glyph unicode="&#xa9;" horiz-adv-x="799" d="M756 334q0 -155 -101.5 -250.5t-254.5 -95.5q-154 0 -255 95.5t-101 250.5q0 152 103 249t253 97t253 -97t103 -249zM715 333q0 143 -90 228.5t-225 85.5q-136 0 -225.5 -85.5t-89.5 -228.5q0 -142 90 -228t225 -86t225 86t90 228zM539 225q6 -9 6 -14q0 -25 -41.5 -58 t-106.5 -33q-81 0 -132.5 56t-51.5 156q0 107 58 165.5t142 58.5q61 0 91.5 -20.5t30.5 -50.5q0 -36 -40 -55l-10 3q0 88 -86 88q-53 0 -92 -42.5t-39 -132.5t40.5 -137t102.5 -47q70 0 122 63h6z" />
<glyph unicode="&#xaa;" horiz-adv-x="395" d="M273 364q-14 -24 -42.5 -42t-66.5 -18q-54 0 -87 28t-33 72q0 107 180 107q15 0 45 -3q1 12 1 35q0 42 -13 64q-21 29 -75 29q-64 0 -93 -57l-16 6q4 33 36 63.5t92 30.5q124 0 124 -109q0 -11 -1 -67t-1 -93q0 -43 14 -56t53 -15v-11q-24 -19 -53 -19q-52 0 -64 55z M270 390q-1 17 -1 89q-6 1 -22 1q-75 -1 -109 -16.5t-34 -55.5q0 -26 17.5 -43t54.5 -17q61 0 94 42z" />
<glyph unicode="&#xab;" horiz-adv-x="487" d="M226 443l18 -14q-13 -25 -33 -57.5t-45.5 -72.5t-36.5 -58q57 -93 115 -199l-20 -12q-96 118 -181 207q80 82 183 206zM412 443l18 -14q-13 -25 -33 -57.5t-45.5 -72.5t-36.5 -58q62 -103 115 -199l-20 -12q-75 93 -181 207q80 82 183 206z" />
<glyph unicode="&#xac;" horiz-adv-x="600" d="M514 29h-48v198h-398v48h446v-246z" />
<glyph unicode="&#xad;" horiz-adv-x="297" d="M247 221h-197v60h197v-60z" />
<glyph unicode="&#xae;" horiz-adv-x="799" d="M756 334q0 -155 -101.5 -250.5t-254.5 -95.5q-154 0 -255 95.5t-101 250.5q0 152 103 249t253 97t253 -97t103 -249zM715 333q0 143 -90 228.5t-225 85.5q-136 0 -225.5 -85.5t-89.5 -228.5q0 -142 90 -228t225 -86t225 86t90 228zM394 132q-20 1 -77 1q-60 0 -84 -1v17 q30 1 40.5 14.5t10.5 41.5v281q0 26 -10 36.5t-41 11.5v15q22 -1 83 -1q12 0 41 0.5t41 0.5q153 0 153 -103q0 -89 -111 -115q23 -3 43 -36q9 -14 24.5 -41.5t21.5 -37.5q19 -32 38 -47q15 -12 43 -12l2 -6q-20 -23 -45 -23q-28 0 -46 13t-37 46q-8 14 -24 44.5t-26.5 49 t-18.5 25.5q-17 15 -42 15q-21 0 -36 1v-113q0 -32 11 -45.5t46 -14.5v-17zM337 353q13 -1 37 -1q68 0 91 23t23 65q0 78 -98 78h-53v-165z" />
<glyph unicode="&#xaf;" horiz-adv-x="440" d="M348 587h-256v54h256v-54z" />
<glyph unicode="&#xb0;" horiz-adv-x="325" d="M162 714q57 0 96 -34t39 -99q0 -62 -39.5 -98t-95.5 -36q-57 0 -95.5 35t-38.5 98q0 62 39 98t95 36zM162 679q-38 0 -63 -27.5t-25 -70.5q0 -44 24 -71.5t64 -27.5q41 0 65 27.5t24 70.5q0 44 -24 71.5t-65 27.5z" />
<glyph unicode="&#xb1;" horiz-adv-x="600" d="M325 168h-49v195h-199v46h199v195h49v-195h198v-46h-198v-195zM523 45h-446v47h446v-47z" />
<glyph unicode="&#xb2;" horiz-adv-x="364" d="M304 459q-19 1 -133 1q-100 0 -132 -1v30q127 92 170 146.5t43 110.5q0 45 -20.5 63.5t-61.5 18.5q-77 0 -77 -86l-4 -2q-37 10 -37 40q0 28 33.5 52t88.5 24q61 0 95.5 -30t34.5 -79q0 -58 -47 -113t-155 -131q10 0 74.5 0.5t127.5 0.5v-45z" />
<glyph unicode="&#xb3;" horiz-adv-x="364" d="M206 666q99 -17 99 -92q0 -57 -41 -89.5t-108 -32.5q-56 0 -90 19t-34 45q0 34 36 43l5 -2q0 -33 23.5 -55t61.5 -22q55 0 77.5 23.5t22.5 69.5q0 77 -108 77q-21 0 -28 -1v27q6 -1 28 -1q91 0 91 85q0 68 -81 68q-71 0 -71 -76l-5 -2q-35 9 -35 36q0 26 32.5 48t82.5 22 q58 0 90.5 -25.5t32.5 -68.5q0 -34 -21.5 -60t-59.5 -36z" />
<glyph unicode="&#xb4;" horiz-adv-x="300" d="M68 532l-10 10q76 100 122 193l67 -42q-28 -35 -84 -85t-95 -76z" />
<glyph unicode="&#xb5;" horiz-adv-x="579" d="M167 -209h-60v526q0 52 -2 66q-4 29 -20 41t-51 12v8q14 15 40 27.5t51 12.5q39 0 41 -44q1 -19 1 -68v-199q0 -59 14 -87q11 -21 34.5 -34t52.5 -13q94 0 145 56v229q0 37 -3 61q-3 27 -20 39t-54 12v8q15 14 42 27t52 13q40 0 42 -45q1 -18 1 -97v-217 q0 -53 18.5 -75.5t65.5 -22.5v-9q-25 -26 -66 -26q-63 0 -72 73q-59 -78 -158 -78q-63 0 -98 39q4 -124 4 -235z" />
<glyph unicode="&#xb6;" horiz-adv-x="662" d="M260 -185v7q60 28 68 93q3 27 3 120v203q-105 0 -154 17q-66 23 -101 68.5t-35 127.5q0 157 146 200q58 17 137 17h134v-7q-30 -12 -47.5 -31t-23.5 -55q-5 -33 -5 -106v-433q0 -118 -12 -148q-28 -70 -110 -73zM331 275v194q0 72 7 105.5t31 56.5q-82 0 -107 -13 q-40 -21 -58.5 -58t-18.5 -105q0 -115 51 -158q25 -22 95 -22zM418 -155v7q55 25 63 93q6 54 6 120v401q0 118 12 148q28 70 115 73v-7q-62 -29 -70 -93q-6 -54 -6 -120v-401q0 -118 -12 -148q-29 -70 -108 -73z" />
<glyph unicode="&#xb7;" horiz-adv-x="249" d="M178 272q0 -23 -15 -38t-38 -15t-38.5 15.5t-15.5 38.5t15.5 38.5t38.5 15.5t38 -15.5t15 -39.5z" />
<glyph unicode="&#xb8;" horiz-adv-x="300" d="M83 -218l-2 16q80 13 80 58q0 27 -34 51q-24 18 -24 37q0 15 26 64l17 -6q-10 -20 -10 -33q0 -15 17 -25q30 -18 38 -24q27 -20 27 -50q0 -39 -40 -63.5t-95 -24.5z" />
<glyph unicode="&#xb9;" horiz-adv-x="364" d="M260 459q-40 2 -81 2q-32 0 -82 -2v16q36 1 48.5 14.5t12.5 42.5v269q-36 -18 -72 -30l-8 17q43 22 95 61h32v-317q0 -29 12 -42.5t43 -14.5v-16z" />
<glyph unicode="&#xba;" horiz-adv-x="397" d="M368 496q0 -87 -44.5 -140t-126.5 -53q-168 0 -168 191q0 87 46.5 136t125.5 49q167 0 167 -183zM306 497q0 81 -27 116t-80 35t-81.5 -38.5t-28.5 -106.5q0 -85 26 -127t83 -42q55 0 81.5 44.5t26.5 118.5z" />
<glyph unicode="&#xbb;" horiz-adv-x="487" d="M261 31l-18 14q13 25 33 57.5t45.5 72.5t36.5 58q-57 93 -115 199l20 12q96 -118 181 -207q-80 -82 -183 -206zM75 31l-18 14q13 25 33 57.5t45.5 72.5t36.5 58q-62 103 -115 199l20 12q75 -93 181 -207q-80 -82 -183 -206z" />
<glyph unicode="&#xbc;" horiz-adv-x="842" d="M622 658l-377 -677h-44l377 677h44zM260 245q-40 2 -81 2q-32 0 -82 -2v16q36 1 48.5 14.5t12.5 42.5v269q-36 -18 -72 -30l-8 17q43 22 95 61h32v-317q0 -29 12 -42.5t43 -14.5v-16zM765 -1q-42 2 -72 2q-32 0 -82 -2v16q35 1 45.5 12.5t10.5 40.5v31h-189v26 q95 154 114 196q13 28 13 42t-6 22v4q11 14 29 14q26 0 26 -27q0 -20 -30 -74q-12 -22 -106 -165h149v148h46v-148h54v-38h-54v-31q0 -27 10.5 -39.5t41.5 -13.5v-16z" />
<glyph unicode="&#xbd;" horiz-adv-x="842" d="M624 658l-377 -677h-44l377 677h44zM269 245q-40 2 -81 2q-32 0 -82 -2v16q36 1 48.5 14.5t12.5 42.5v269q-36 -18 -72 -30l-8 17q43 22 95 61h32v-317q0 -29 12 -42.5t43 -14.5v-16zM784 -1q-19 1 -133 1q-100 0 -132 -1v30q127 92 170 146.5t43 110.5q0 45 -20.5 63.5 t-61.5 18.5q-77 0 -77 -86l-4 -2q-37 10 -37 40q0 28 33.5 52t88.5 24q61 0 95.5 -30t34.5 -79q0 -58 -47 -113t-155 -131q10 0 74.5 0.5t127.5 0.5v-45z" />
<glyph unicode="&#xbe;" horiz-adv-x="842" d="M663 658l-377 -677h-44l377 677h44zM247 452q99 -17 99 -92q0 -57 -41 -89.5t-108 -32.5q-56 0 -90 19t-34 45q0 34 36 43l5 -2q0 -33 23.5 -55t61.5 -22q55 0 77.5 23.5t22.5 69.5q0 77 -108 77q-21 0 -28 -1v27q6 -1 28 -1q91 0 91 85q0 68 -81 68q-71 0 -71 -76l-5 -2 q-35 9 -35 36q0 26 32.5 48t82.5 22q58 0 90.5 -25.5t32.5 -68.5q0 -34 -21.5 -60t-59.5 -36zM794 -1q-42 2 -72 2q-32 0 -82 -2v16q35 1 45.5 12.5t10.5 40.5v31h-189v26q95 154 114 196q13 28 13 42t-6 22v4q11 14 29 14q26 0 26 -27q0 -20 -30 -74q-12 -22 -106 -165h149 v148h46v-148h54v-38h-54v-31q0 -27 10.5 -39.5t41.5 -13.5v-16z" />
<glyph unicode="&#xbf;" horiz-adv-x="436" d="M231 289l24 11q32 -47 32 -87q0 -39 -22 -65.5t-83 -69.5q-83 -58 -83 -127q0 -49 27 -78.5t76 -29.5q105 0 105 126l7 3q29 -6 42.5 -21.5t13.5 -33.5q0 -46 -43 -80t-128 -34q-72 0 -119.5 41.5t-47.5 102.5q0 56 25 94.5t98 89.5q4 3 17 12t18.5 13t16.5 12.5t16 15 t11.5 15t9 18t2.5 19.5q0 29 -15 53zM196 441q0 23 15 38t38 15t38.5 -15.5t15.5 -38.5q0 -22 -15.5 -38t-38.5 -16t-38 15.5t-15 39.5z" />
<glyph unicode="&#xc0;" horiz-adv-x="647" d="M219 -1q-64 2 -114 2q-25 0 -101 -2v15q39 1 58 22.5t36 67.5l155 420q38 105 51 144h48q17 -58 48 -143l148 -421q16 -45 36 -67t58 -23v-15q-76 2 -101 2q-66 0 -130 -2v15q77 2 77 40q0 17 -11 50l-38 109h-248l-38 -109q-10 -27 -10 -47q0 -19 21 -30.5t55 -12.5v-15 zM205 255h220l-109 316zM397 724l-8 -13q-43 16 -108.5 53t-101.5 65l56 55q56 -70 162 -160z" />
<glyph unicode="&#xc1;" horiz-adv-x="647" d="M219 -1q-64 2 -114 2q-25 0 -101 -2v15q39 1 58 22.5t36 67.5l155 420q38 105 51 144h48q17 -58 48 -143l148 -421q16 -45 36 -67t58 -23v-15q-76 2 -101 2q-66 0 -130 -2v15q77 2 77 40q0 17 -11 50l-38 109h-248l-38 -109q-10 -27 -10 -47q0 -19 21 -30.5t55 -12.5v-15 zM205 255h220l-109 316zM259 702l-8 13q102 87 162 160l56 -55q-36 -28 -101.5 -65t-108.5 -53z" />
<glyph unicode="&#xc2;" horiz-adv-x="647" d="M219 -1q-64 2 -114 2q-25 0 -101 -2v15q39 1 58 22.5t36 67.5l155 420q38 105 51 144h48q17 -58 48 -143l148 -421q16 -45 36 -67t58 -23v-15q-76 2 -101 2q-66 0 -130 -2v15q77 2 77 40q0 17 -11 50l-38 109h-248l-38 -109q-10 -27 -10 -47q0 -19 21 -30.5t55 -12.5v-15 zM205 255h220l-109 316zM468 725l-10 -13q-72 34 -134 69q-86 -46 -133 -69l-9 12q41 37 138 139h8q18 -19 37 -38.5t32 -32t35.5 -34t35.5 -33.5z" />
<glyph unicode="&#xc3;" horiz-adv-x="647" d="M219 -1q-64 2 -114 2q-25 0 -101 -2v15q39 1 58 22.5t36 67.5l155 420q38 105 51 144h48q17 -58 48 -143l148 -421q16 -45 36 -67t58 -23v-15q-76 2 -101 2q-66 0 -130 -2v15q77 2 77 40q0 17 -11 50l-38 109h-248l-38 -109q-10 -27 -10 -47q0 -19 21 -30.5t55 -12.5v-15 zM205 255h220l-109 316zM478 817q-8 -27 -16 -44t-26.5 -33t-44.5 -16q-27 0 -69 19q-44 19 -61 19q-37 0 -61 -50l-16 5q10 40 33 70t57 30q20 0 68 -20q47 -19 60 -19q22 0 35.5 10.5t25.5 33.5z" />
<glyph unicode="&#xc4;" horiz-adv-x="647" d="M219 -1q-64 2 -114 2q-25 0 -101 -2v15q39 1 58 22.5t36 67.5l155 420q38 105 51 144h48q17 -58 48 -143l148 -421q16 -45 36 -67t58 -23v-15q-76 2 -101 2q-66 0 -130 -2v15q77 2 77 40q0 17 -11 50l-38 109h-248l-38 -109q-10 -27 -10 -47q0 -19 21 -30.5t55 -12.5v-15 zM205 255h220l-109 316zM275 768q0 -19 -12.5 -31.5t-31.5 -12.5t-31 12.5t-12 31.5t12 31.5t31 12.5t31.5 -12.5t12.5 -31.5zM460 768q0 -19 -12.5 -31.5t-31.5 -12.5t-31 12.5t-12 31.5t12 31.5t31 12.5t31.5 -12.5t12.5 -31.5z" />
<glyph unicode="&#xc5;" horiz-adv-x="647" d="M219 -1q-64 2 -114 2q-25 0 -101 -2v15q39 1 58 22.5t36 67.5l155 420q38 105 51 144h48q17 -58 48 -143l148 -421q16 -45 36 -67t58 -23v-15q-76 2 -101 2q-66 0 -130 -2v15q77 2 77 40q0 17 -11 50l-38 109h-248l-38 -109q-10 -27 -10 -47q0 -19 21 -30.5t55 -12.5v-15 zM205 255h220l-109 316zM420 786q0 -41 -27 -68t-70 -27q-41 0 -68 27t-27 68t27 68.5t68 27.5q43 0 70 -27.5t27 -68.5zM383 785q0 30 -16.5 48t-43.5 18q-26 0 -42 -18.5t-16 -47.5q0 -26 16.5 -44t41.5 -18q27 0 43.5 17.5t16.5 44.5z" />
<glyph unicode="&#xc6;" horiz-adv-x="925" d="M225 -1q-64 2 -124 2q-25 0 -101 -2v15q30 1 53.5 21t55.5 69l286 445q32 50 32 67q0 18 -17.5 26.5t-59.5 10.5v16q37 -2 285 -2q125 0 220 1q2 -54 10 -145h-18q-16 70 -47.5 86.5t-132.5 16.5h-92v-266h53q82 0 108.5 15t29.5 58h20q-2 -31 -2 -93q0 -61 2 -91h-20 q-3 42 -29 57.5t-108 15.5h-54v-274q73 -8 171 -8q61 0 86 25.5t33 94.5h21q-4 -106 -4 -160q-106 1 -316 1q-72 0 -134 -2v16q47 1 62.5 22.5t15.5 67.5v123h-261l-63 -101q-34 -54 -34 -76q0 -36 73 -37v-15zM275 270h235v354q-13 0 -31 -28z" />
<glyph unicode="&#xc7;" horiz-adv-x="557" d="M265 -229l-2 17q84 14 84 61q0 33 -35 56q-26 17 -26 39q0 15 16 45q-123 11 -185 98.5t-62 235.5q0 167 77 262t210 95q91 0 140 -27t49 -68q0 -37 -53 -59l-7 3q0 57 -39.5 85t-93.5 28q-97 0 -154 -75t-57 -235q0 -79 18.5 -138t51 -91.5t69.5 -47.5t80 -15 q119 0 182 96h5q7 -8 7 -18q0 -40 -58 -85.5t-142 -45.5h-16q-3 -11 -3 -17q0 -15 18 -26q34 -20 40 -25q28 -21 28 -55q0 -41 -42 -67t-100 -26z" />
<glyph unicode="&#xc8;" horiz-adv-x="546" d="M499 0q-106 1 -318 1q-72 0 -134 -2v16q47 1 63.5 22.5t16.5 67.5v478q0 41 -15.5 55t-64.5 15v16q83 -4 152 -4q118 0 271 3q4 -59 11 -145h-17q-17 70 -48 86.5t-131 16.5h-93v-258h52q83 0 109 14.5t29 57.5h20q-2 -31 -2 -92t2 -91h-20q-3 42 -28.5 57.5t-108.5 15.5 h-53v-282q73 -8 171 -8q60 0 85 25.5t33 94.5h20q-2 -106 -2 -160zM366 724l-8 -13q-43 16 -108.5 53t-101.5 65l56 55q56 -70 162 -160z" />
<glyph unicode="&#xc9;" horiz-adv-x="546" d="M499 0q-106 1 -318 1q-72 0 -134 -2v16q47 1 63.5 22.5t16.5 67.5v478q0 41 -15.5 55t-64.5 15v16q83 -4 152 -4q118 0 271 3q4 -59 11 -145h-17q-17 70 -48 86.5t-131 16.5h-93v-258h52q83 0 109 14.5t29 57.5h20q-2 -31 -2 -92t2 -91h-20q-3 42 -28.5 57.5t-108.5 15.5 h-53v-282q73 -8 171 -8q60 0 85 25.5t33 94.5h20q-2 -106 -2 -160zM236 702l-8 13q102 87 162 160l56 -55q-36 -28 -101.5 -65t-108.5 -53z" />
<glyph unicode="&#xca;" horiz-adv-x="546" d="M499 0q-106 1 -318 1q-72 0 -134 -2v16q47 1 63.5 22.5t16.5 67.5v478q0 41 -15.5 55t-64.5 15v16q83 -4 152 -4q118 0 271 3q4 -59 11 -145h-17q-17 70 -48 86.5t-131 16.5h-93v-258h52q83 0 109 14.5t29 57.5h20q-2 -31 -2 -92t2 -91h-20q-3 42 -28.5 57.5t-108.5 15.5 h-53v-282q73 -8 171 -8q60 0 85 25.5t33 94.5h20q-2 -106 -2 -160zM440 725l-10 -13q-72 34 -134 69q-86 -46 -133 -69l-9 12q41 37 138 139h8q18 -19 37 -38.5t32 -32t35.5 -34t35.5 -33.5z" />
<glyph unicode="&#xcb;" horiz-adv-x="546" d="M499 0q-106 1 -318 1q-72 0 -134 -2v16q47 1 63.5 22.5t16.5 67.5v478q0 41 -15.5 55t-64.5 15v16q83 -4 152 -4q118 0 271 3q4 -59 11 -145h-17q-17 70 -48 86.5t-131 16.5h-93v-258h52q83 0 109 14.5t29 57.5h20q-2 -31 -2 -92t2 -91h-20q-3 42 -28.5 57.5t-108.5 15.5 h-53v-282q73 -8 171 -8q60 0 85 25.5t33 94.5h20q-2 -106 -2 -160zM245 768q0 -19 -12.5 -31.5t-31.5 -12.5t-31 12.5t-12 31.5t12 31.5t31 12.5t31.5 -12.5t12.5 -31.5zM430 768q0 -19 -12.5 -31.5t-31.5 -12.5t-31 12.5t-12 31.5t12 31.5t31 12.5t31.5 -12.5t12.5 -31.5z " />
<glyph unicode="&#xcc;" horiz-adv-x="319" d="M272 -1q-64 2 -112 2q-39 0 -113 -2v16q47 1 63.5 22.5t16.5 67.5v478q0 41 -15.5 55t-64.5 15v16q37 -2 113 -2q75 0 112 2v-16q-50 -1 -65 -14.5t-15 -55.5v-478q0 -46 16.5 -67.5t63.5 -22.5v-16zM236 724l-8 -13q-43 16 -108.5 53t-101.5 65l56 55q56 -70 162 -160z " />
<glyph unicode="&#xcd;" horiz-adv-x="319" d="M272 -1q-64 2 -112 2q-39 0 -113 -2v16q47 1 63.5 22.5t16.5 67.5v478q0 41 -15.5 55t-64.5 15v16q37 -2 113 -2q75 0 112 2v-16q-50 -1 -65 -14.5t-15 -55.5v-478q0 -46 16.5 -67.5t63.5 -22.5v-16zM97 702l-8 13q102 87 162 160l56 -55q-36 -28 -101.5 -65t-108.5 -53z " />
<glyph unicode="&#xce;" horiz-adv-x="319" d="M272 -1q-64 2 -112 2q-39 0 -113 -2v16q47 1 63.5 22.5t16.5 67.5v478q0 41 -15.5 55t-64.5 15v16q37 -2 113 -2q75 0 112 2v-16q-50 -1 -65 -14.5t-15 -55.5v-478q0 -46 16.5 -67.5t63.5 -22.5v-16zM307 725l-10 -13q-72 34 -134 69q-86 -46 -133 -69l-9 12 q41 37 138 139h8q18 -19 37 -38.5t32 -32t35.5 -34t35.5 -33.5z" />
<glyph unicode="&#xcf;" horiz-adv-x="319" d="M272 -1q-64 2 -112 2q-39 0 -113 -2v16q47 1 63.5 22.5t16.5 67.5v478q0 41 -15.5 55t-64.5 15v16q37 -2 113 -2q75 0 112 2v-16q-50 -1 -65 -14.5t-15 -55.5v-478q0 -46 16.5 -67.5t63.5 -22.5v-16zM113 768q0 -19 -12.5 -31.5t-31.5 -12.5t-31 12.5t-12 31.5t12 31.5 t31 12.5t31.5 -12.5t12.5 -31.5zM298 768q0 -19 -12.5 -31.5t-31.5 -12.5t-31 12.5t-12 31.5t12 31.5t31 12.5t31.5 -12.5t12.5 -31.5z" />
<glyph unicode="&#xd0;" horiz-adv-x="662" d="M47 -1v16q47 1 63.5 22.5t16.5 67.5v230h-78v40h78v208q0 41 -15.5 55t-64.5 15v16q55 -3 116 -3q17 0 56 1t55 1q166 0 249 -77.5t83 -252.5q0 -156 -76 -247t-243 -91q-17 0 -64 1t-63 1q-61 0 -113 -3zM192 48q38 -5 85 -5q133 0 194.5 64.5t61.5 223.5 q0 268 -201 293q-41 5 -140 5v-254h195v-40h-195v-287z" />
<glyph unicode="&#xd1;" horiz-adv-x="724" d="M262 -1q-64 2 -102 2q-18 0 -53.5 -1t-54.5 -1v16q47 1 64.5 23t17.5 67v499q-27 35 -79 38l-2 6q34 29 79 29q40 0 77 -41q82 -90 346 -506q-6 87 -6 434q0 45 -16.5 67t-63.5 23v15q36 -2 107 -2q38 0 102 2v-15q-47 -1 -63.5 -23t-16.5 -67v-567h-36 q-233 372 -383 569q2 -72 2 -461q0 -46 17 -67.5t64 -22.5v-16zM531 817q-8 -27 -16 -44t-26.5 -33t-44.5 -16q-27 0 -69 19q-44 19 -61 19q-37 0 -61 -50l-16 5q10 40 33 70t57 30q20 0 68 -20q47 -19 60 -19q23 0 36 10.5t25 33.5z" />
<glyph unicode="&#xd2;" horiz-adv-x="661" d="M605 330q0 -158 -70 -250.5t-202 -92.5q-141 0 -209.5 95t-68.5 255q0 158 73 251t200 93q76 0 131.5 -28t86.5 -78.5t45 -111t14 -133.5zM533 321q0 154 -51 238t-154 84q-98 0 -149.5 -76.5t-51.5 -219.5q0 -148 51 -235t155 -87q91 0 145.5 74t54.5 222zM407 724 l-8 -13q-43 16 -108.5 53t-101.5 65l56 55q56 -70 162 -160z" />
<glyph unicode="&#xd3;" horiz-adv-x="661" d="M605 330q0 -158 -70 -250.5t-202 -92.5q-141 0 -209.5 95t-68.5 255q0 158 73 251t200 93q76 0 131.5 -28t86.5 -78.5t45 -111t14 -133.5zM533 321q0 154 -51 238t-154 84q-98 0 -149.5 -76.5t-51.5 -219.5q0 -148 51 -235t155 -87q91 0 145.5 74t54.5 222zM259 702 l-8 13q102 87 162 160l56 -55q-36 -28 -101.5 -65t-108.5 -53z" />
<glyph unicode="&#xd4;" horiz-adv-x="661" d="M605 330q0 -158 -70 -250.5t-202 -92.5q-141 0 -209.5 95t-68.5 255q0 158 73 251t200 93q76 0 131.5 -28t86.5 -78.5t45 -111t14 -133.5zM533 321q0 154 -51 238t-154 84q-98 0 -149.5 -76.5t-51.5 -219.5q0 -148 51 -235t155 -87q91 0 145.5 74t54.5 222zM471 725 l-10 -13q-72 34 -134 69q-86 -46 -133 -69l-9 12q41 37 138 139h8q18 -19 37 -38.5t32 -32t35.5 -34t35.5 -33.5z" />
<glyph unicode="&#xd5;" horiz-adv-x="661" d="M605 330q0 -158 -70 -250.5t-202 -92.5q-141 0 -209.5 95t-68.5 255q0 158 73 251t200 93q76 0 131.5 -28t86.5 -78.5t45 -111t14 -133.5zM533 321q0 154 -51 238t-154 84q-98 0 -149.5 -76.5t-51.5 -219.5q0 -148 51 -235t155 -87q91 0 145.5 74t54.5 222zM484 817 q-8 -27 -16 -44t-26.5 -33t-44.5 -16q-27 0 -69 19q-44 19 -61 19q-37 0 -61 -50l-16 5q10 40 33 70t57 30q20 0 68 -20q48 -19 60 -19q22 0 35.5 10.5t25.5 33.5z" />
<glyph unicode="&#xd6;" horiz-adv-x="661" d="M605 330q0 -158 -70 -250.5t-202 -92.5q-141 0 -209.5 95t-68.5 255q0 158 73 251t200 93q76 0 131.5 -28t86.5 -78.5t45 -111t14 -133.5zM533 321q0 154 -51 238t-154 84q-98 0 -149.5 -76.5t-51.5 -219.5q0 -148 51 -235t155 -87q91 0 145.5 74t54.5 222zM284 768 q0 -19 -12.5 -31.5t-31.5 -12.5t-31 12.5t-12 31.5t12 31.5t31 12.5t31.5 -12.5t12.5 -31.5zM469 768q0 -19 -12.5 -31.5t-31.5 -12.5t-31 12.5t-12 31.5t12 31.5t31 12.5t31.5 -12.5t12.5 -31.5z" />
<glyph unicode="&#xd7;" horiz-adv-x="600" d="M476 154l-33 -33l-143 141l-142 -141l-33 32l142 142l-142 141l33 34l143 -141l142 142l32 -33l-142 -142z" />
<glyph unicode="&#xd8;" horiz-adv-x="661" d="M605 330q0 -158 -70 -250.5t-202 -92.5q-99 0 -165 50l-52 -85l-35 20l57 93q-83 92 -83 272q0 158 73 251t200 93q95 0 159 -45l51 83l36 -21l-56 -90q87 -91 87 -278zM533 321q0 150 -48 232l-288 -468q51 -60 136 -60q91 0 145.5 74t54.5 222zM127 347q0 -143 45 -226 l286 468q-49 54 -130 54q-98 0 -149.5 -76.5t-51.5 -219.5z" />
<glyph unicode="&#xd9;" horiz-adv-x="684" d="M671 653q-47 -1 -63 -23.5t-16 -68.5v-337q0 -78 -19 -120q-48 -115 -217 -115q-168 0 -216 112q-21 49 -21 125v357q0 42 -15 55.5t-65 14.5v16q37 -2 113 -2q75 0 112 2v-16q-50 -1 -65 -14.5t-15 -55.5v-354q0 -73 15 -110q35 -85 165 -85q124 0 162 85q15 35 15 105 v339q0 45 -16 67t-63 23v15q74 -2 110 -2q39 0 99 2v-15zM444 724l-8 -13q-43 16 -108.5 53t-101.5 65l56 55q56 -70 162 -160z" />
<glyph unicode="&#xda;" horiz-adv-x="684" d="M671 653q-47 -1 -63 -23.5t-16 -68.5v-337q0 -78 -19 -120q-48 -115 -217 -115q-168 0 -216 112q-21 49 -21 125v357q0 42 -15 55.5t-65 14.5v16q37 -2 113 -2q75 0 112 2v-16q-50 -1 -65 -14.5t-15 -55.5v-354q0 -73 15 -110q35 -85 165 -85q124 0 162 85q15 35 15 105 v339q0 45 -16 67t-63 23v15q74 -2 110 -2q39 0 99 2v-15zM300 702l-8 13q102 87 162 160l56 -55q-36 -28 -101.5 -65t-108.5 -53z" />
<glyph unicode="&#xdb;" horiz-adv-x="684" d="M671 653q-47 -1 -63 -23.5t-16 -68.5v-337q0 -78 -19 -120q-48 -115 -217 -115q-168 0 -216 112q-21 49 -21 125v357q0 42 -15 55.5t-65 14.5v16q37 -2 113 -2q75 0 112 2v-16q-50 -1 -65 -14.5t-15 -55.5v-354q0 -73 15 -110q35 -85 165 -85q124 0 162 85q15 35 15 105 v339q0 45 -16 67t-63 23v15q74 -2 110 -2q39 0 99 2v-15zM504 725l-10 -13q-72 34 -134 69q-86 -46 -133 -69l-9 12q41 37 138 139h8q18 -19 37 -38.5t32 -32t35.5 -34t35.5 -33.5z" />
<glyph unicode="&#xdc;" horiz-adv-x="684" d="M671 653q-47 -1 -63 -23.5t-16 -68.5v-337q0 -78 -19 -120q-48 -115 -217 -115q-168 0 -216 112q-21 49 -21 125v357q0 42 -15 55.5t-65 14.5v16q37 -2 113 -2q75 0 112 2v-16q-50 -1 -65 -14.5t-15 -55.5v-354q0 -73 15 -110q35 -85 165 -85q124 0 162 85q15 35 15 105 v339q0 45 -16 67t-63 23v15q74 -2 110 -2q39 0 99 2v-15zM319 768q0 -19 -12.5 -31.5t-31.5 -12.5t-31 12.5t-12 31.5t12 31.5t31 12.5t31.5 -12.5t12.5 -31.5zM504 768q0 -19 -12.5 -31.5t-31.5 -12.5t-31 12.5t-12 31.5t12 31.5t31 12.5t31.5 -12.5t12.5 -31.5z" />
<glyph unicode="&#xdd;" horiz-adv-x="621" d="M417 -1q-64 2 -113 2q-38 0 -112 -2v16q47 1 63.5 22.5t16.5 67.5v171l-170 288q-19 32 -29.5 47t-29 29t-39.5 15v14q38 -2 113 -2q47 0 111 2v-14q-73 -2 -73 -36q0 -23 28 -72l133 -223l130 219q32 54 32 75q0 35 -70 37v14q64 -2 114 -2q17 0 95 2v-14 q-25 -1 -46.5 -22.5t-52.5 -68.5l-181 -287v-172q0 -46 16 -67.5t64 -22.5v-16zM271 702l-8 13q102 87 162 160l56 -55q-36 -28 -101.5 -65t-108.5 -53z" />
<glyph unicode="&#xde;" horiz-adv-x="580" d="M282 -1q-64 2 -122 2q-39 0 -113 -2v16q47 1 63.5 22.5t16.5 67.5v478q0 41 -15.5 55t-64.5 15v16q37 -2 113 -2q75 0 112 2v-16q-50 -1 -65 -14.5t-15 -55.5v-53q60 3 95 3q246 0 246 -175q0 -89 -64 -146.5t-213 -57.5q-41 0 -64 2v-47q0 -53 19.5 -73t70.5 -21v-16z M192 194q21 -2 65 -2q208 0 208 158q0 92 -80 125q-44 20 -133 20q-14 0 -60 -2v-299z" />
<glyph unicode="&#xdf;" horiz-adv-x="570" d="M174 -1q-28 3 -61 3q-32 0 -69 -3v16q39 2 54 21t15 67v333h-75v21q41 8 57.5 37.5t28.5 92.5q11 60 43.5 98.5t68.5 51.5t78 13q81 0 121 -39.5t40 -95.5q0 -28 -11 -54t-36 -51t-42 -39t-51 -39q-37 -28 -37 -55q0 -21 19 -37t61 -34l50 -22q113 -50 113 -143 q0 -72 -49 -113t-120 -41q-68 0 -107 26.5t-39 54.5q0 24 42 48l7 -3q0 -34 26.5 -61t73.5 -27q48 0 78 27t30 78q0 63 -81 99l-49 22q-61 26 -85.5 52t-24.5 62q0 28 15 48t49 45q31 23 51 40.5t38.5 48t18.5 62.5q0 105 -109 105q-71 0 -107 -63q-10 -17 -17.5 -63 t-7.5 -87v-502z" />
<glyph unicode="&#xe0;" horiz-adv-x="505" d="M352 67q-13 -30 -55 -55t-92 -25q-69 0 -113 37.5t-44 96.5q0 140 242 140q31 0 55 -4q1 20 1 46q0 70 -16 97q-27 42 -99 42q-88 0 -133 -67l-15 7q7 39 48.5 74t113.5 35q76 0 119.5 -32t43.5 -112q0 -14 -1.5 -91.5t-1.5 -127.5q0 -59 18.5 -79t66.5 -22v-9 q-28 -26 -67 -26q-32 0 -47.5 18t-23.5 57zM346 95q0 3 -0.5 53t-0.5 77q-18 2 -31 2q-199 0 -199 -99q0 -41 28 -66t79 -25q82 0 124 58zM316 542l-11 -10q-39 26 -95 76t-84 85l67 42q44 -89 123 -193z" />
<glyph unicode="&#xe1;" horiz-adv-x="505" d="M352 67q-13 -30 -55 -55t-92 -25q-69 0 -113 37.5t-44 96.5q0 140 242 140q31 0 55 -4q1 20 1 46q0 70 -16 97q-27 42 -99 42q-88 0 -133 -67l-15 7q7 39 48.5 74t113.5 35q76 0 119.5 -32t43.5 -112q0 -14 -1.5 -91.5t-1.5 -127.5q0 -59 18.5 -79t66.5 -22v-9 q-28 -26 -67 -26q-32 0 -47.5 18t-23.5 57zM346 95q0 3 -0.5 53t-0.5 77q-18 2 -31 2q-199 0 -199 -99q0 -41 28 -66t79 -25q82 0 124 58zM202 532l-10 10q76 100 122 193l67 -42q-28 -35 -84 -85t-95 -76z" />
<glyph unicode="&#xe2;" horiz-adv-x="505" d="M352 67q-13 -30 -55 -55t-92 -25q-69 0 -113 37.5t-44 96.5q0 140 242 140q31 0 55 -4q1 20 1 46q0 70 -16 97q-27 42 -99 42q-88 0 -133 -67l-15 7q7 39 48.5 74t113.5 35q76 0 119.5 -32t43.5 -112q0 -14 -1.5 -91.5t-1.5 -127.5q0 -59 18.5 -79t66.5 -22v-9 q-28 -26 -67 -26q-32 0 -47.5 18t-23.5 57zM346 95q0 3 -0.5 53t-0.5 77q-18 2 -31 2q-199 0 -199 -99q0 -41 28 -66t79 -25q82 0 124 58zM386 557l-11 -12q-6 4 -127 92q-122 -89 -126 -92l-11 12q65 71 133 164h8q75 -96 134 -164z" />
<glyph unicode="&#xe3;" horiz-adv-x="505" d="M352 67q-13 -30 -55 -55t-92 -25q-69 0 -113 37.5t-44 96.5q0 140 242 140q31 0 55 -4q1 20 1 46q0 70 -16 97q-27 42 -99 42q-88 0 -133 -67l-15 7q7 39 48.5 74t113.5 35q76 0 119.5 -32t43.5 -112q0 -14 -1.5 -91.5t-1.5 -127.5q0 -59 18.5 -79t66.5 -22v-9 q-28 -26 -67 -26q-32 0 -47.5 18t-23.5 57zM346 95q0 3 -0.5 53t-0.5 77q-18 2 -31 2q-199 0 -199 -99q0 -41 28 -66t79 -25q82 0 124 58zM399 676q-8 -27 -16 -44t-26.5 -33t-44.5 -16q-27 0 -69 19q-44 19 -61 19q-37 0 -62 -51l-15 6q10 40 33 70t57 30q20 0 68 -20 q48 -19 60 -19q22 0 35 11t26 34z" />
<glyph unicode="&#xe4;" horiz-adv-x="505" d="M352 67q-13 -30 -55 -55t-92 -25q-69 0 -113 37.5t-44 96.5q0 140 242 140q31 0 55 -4q1 20 1 46q0 70 -16 97q-27 42 -99 42q-88 0 -133 -67l-15 7q7 39 48.5 74t113.5 35q76 0 119.5 -32t43.5 -112q0 -14 -1.5 -91.5t-1.5 -127.5q0 -59 18.5 -79t66.5 -22v-9 q-28 -26 -67 -26q-32 0 -47.5 18t-23.5 57zM346 95q0 3 -0.5 53t-0.5 77q-18 2 -31 2q-199 0 -199 -99q0 -41 28 -66t79 -25q82 0 124 58zM203 619q0 -19 -12.5 -31.5t-31.5 -12.5t-31 12.5t-12 31.5t12 31.5t31 12.5t31.5 -12.5t12.5 -31.5zM376 619q0 -19 -12.5 -31.5 t-31.5 -12.5t-31 12.5t-12 31.5t12 31.5t31 12.5t31.5 -12.5t12.5 -31.5z" />
<glyph unicode="&#xe5;" horiz-adv-x="505" d="M352 67q-13 -30 -55 -55t-92 -25q-69 0 -113 37.5t-44 96.5q0 140 242 140q31 0 55 -4q1 20 1 46q0 70 -16 97q-27 42 -99 42q-88 0 -133 -67l-15 7q7 39 48.5 74t113.5 35q76 0 119.5 -32t43.5 -112q0 -14 -1.5 -91.5t-1.5 -127.5q0 -59 18.5 -79t66.5 -22v-9 q-28 -26 -67 -26q-32 0 -47.5 18t-23.5 57zM346 95q0 3 -0.5 53t-0.5 77q-18 2 -31 2q-199 0 -199 -99q0 -41 28 -66t79 -25q82 0 124 58zM346 645q0 -41 -27 -68t-70 -27q-41 0 -68 27t-27 68t27 68.5t68 27.5q43 0 70 -27.5t27 -68.5zM309 644q0 30 -16.5 48t-43.5 18 q-26 0 -42 -18.5t-16 -47.5q0 -26 16.5 -44t41.5 -18q27 0 43.5 17.5t16.5 44.5z" />
<glyph unicode="&#xe6;" horiz-adv-x="773" d="M375 86q-42 -52 -82 -74t-94 -22q-65 0 -108 37.5t-43 96.5q0 76 63.5 107.5t193.5 31.5q17 0 35 -2v38q0 67 -18 98q-24 41 -93 41q-88 0 -131 -63l-14 7q7 42 49 75.5t114 33.5q114 0 141 -86q55 86 159 86q187 0 187 -213q0 -22 -34 -22h-298q1 -110 46 -164t123 -54 q97 0 151 67h6q5 -4 5 -17q0 -29 -51.5 -65t-125.5 -36q-131 0 -181 99zM361 117q-21 48 -21 109q-18 2 -35 2q-191 0 -191 -98q0 -42 26 -66.5t76 -24.5q43 0 82 21.5t63 56.5zM403 288q65 1 146 2.5t93 1.5q23 0 23 19q0 75 -31.5 108.5t-91.5 33.5q-48 0 -91 -36.5 t-48 -128.5z" />
<glyph unicode="&#xe7;" horiz-adv-x="452" d="M194 -218l-2 16q80 13 80 58q0 27 -34 51q-24 18 -24 37q0 16 15 45q-83 9 -131.5 71t-48.5 171q0 125 65 192.5t161 67.5q71 0 107 -23t36 -58q0 -33 -52 -59l-8 5q0 95 -98 95q-63 0 -104.5 -48.5t-41.5 -153.5t44 -158t117 -53q85 0 140 67h7q6 -6 6 -16 q0 -28 -48 -65t-121 -37h-9q-3 -11 -3 -18q0 -15 17 -25q30 -18 38 -24q27 -20 27 -50q0 -39 -40 -63.5t-95 -24.5z" />
<glyph unicode="&#xe8;" horiz-adv-x="482" d="M112 256q1 -110 45.5 -164t122.5 -54q97 0 152 67h5q5 -4 5 -17q0 -29 -51.5 -65t-125.5 -36q-106 0 -161 67.5t-55 188.5q0 116 57.5 182t149.5 66q187 0 187 -208q0 -27 -34 -27h-297zM113 288q64 1 145.5 2.5t93.5 1.5q22 0 22 19q0 142 -122 142q-48 0 -91 -36.5 t-48 -128.5zM314 542l-11 -10q-39 26 -95 76t-84 85l67 42q44 -89 123 -193z" />
<glyph unicode="&#xe9;" horiz-adv-x="482" d="M112 256q1 -110 45.5 -164t122.5 -54q97 0 152 67h5q5 -4 5 -17q0 -29 -51.5 -65t-125.5 -36q-106 0 -161 67.5t-55 188.5q0 116 57.5 182t149.5 66q187 0 187 -208q0 -27 -34 -27h-297zM113 288q64 1 145.5 2.5t93.5 1.5q22 0 22 19q0 142 -122 142q-48 0 -91 -36.5 t-48 -128.5zM214 532l-10 10q76 100 122 193l67 -42q-28 -35 -84 -85t-95 -76z" />
<glyph unicode="&#xea;" horiz-adv-x="482" d="M112 256q1 -110 45.5 -164t122.5 -54q97 0 152 67h5q5 -4 5 -17q0 -29 -51.5 -65t-125.5 -36q-106 0 -161 67.5t-55 188.5q0 116 57.5 182t149.5 66q187 0 187 -208q0 -27 -34 -27h-297zM113 288q64 1 145.5 2.5t93.5 1.5q22 0 22 19q0 142 -122 142q-48 0 -91 -36.5 t-48 -128.5zM397 557l-11 -12q-6 4 -127 92q-122 -89 -126 -92l-11 12q65 71 133 164h8q75 -96 134 -164z" />
<glyph unicode="&#xeb;" horiz-adv-x="482" d="M112 256q1 -110 45.5 -164t122.5 -54q97 0 152 67h5q5 -4 5 -17q0 -29 -51.5 -65t-125.5 -36q-106 0 -161 67.5t-55 188.5q0 116 57.5 182t149.5 66q187 0 187 -208q0 -27 -34 -27h-297zM113 288q64 1 145.5 2.5t93.5 1.5q22 0 22 19q0 142 -122 142q-48 0 -91 -36.5 t-48 -128.5zM217 619q0 -19 -12.5 -31.5t-31.5 -12.5t-31 12.5t-12 31.5t12 31.5t31 12.5t31.5 -12.5t12.5 -31.5zM390 619q0 -19 -12.5 -31.5t-31.5 -12.5t-31 12.5t-12 31.5t12 31.5t31 12.5t31.5 -12.5t12.5 -31.5z" />
<glyph unicode="&#xec;" horiz-adv-x="281" d="M260 -1q-59 3 -111 3q-62 0 -100 -3v16q40 2 55.5 21t15.5 67v204q0 73 -17 101t-64 28v8q45 40 86 40q42 0 52 -49q2 -22 2 -44v-295q0 -43 17.5 -61.5t63.5 -19.5v-16zM174 542l-11 -10q-39 26 -95 76t-84 85l67 42q44 -89 123 -193z" />
<glyph unicode="&#xed;" horiz-adv-x="281" d="M260 -1q-59 3 -111 3q-62 0 -100 -3v16q40 2 55.5 21t15.5 67v204q0 73 -17 101t-64 28v8q45 40 86 40q42 0 52 -49q2 -22 2 -44v-295q0 -43 17.5 -61.5t63.5 -19.5v-16zM68 532l-10 10q76 100 122 193l67 -42q-28 -35 -84 -85t-95 -76z" />
<glyph unicode="&#xee;" horiz-adv-x="281" d="M260 -1q-59 3 -111 3q-62 0 -100 -3v16q40 2 55.5 21t15.5 67v204q0 73 -17 101t-64 28v8q45 40 86 40q42 0 52 -49q2 -22 2 -44v-295q0 -43 17.5 -61.5t63.5 -19.5v-16zM275 557l-11 -12q-6 4 -127 92q-122 -89 -126 -92l-11 12q65 71 133 164h8q75 -96 134 -164z" />
<glyph unicode="&#xef;" horiz-adv-x="281" d="M260 -1q-59 3 -111 3q-62 0 -100 -3v16q40 2 55.5 21t15.5 67v204q0 73 -17 101t-64 28v8q45 40 86 40q42 0 52 -49q2 -22 2 -44v-295q0 -43 17.5 -61.5t63.5 -19.5v-16zM90 619q0 -19 -12.5 -31.5t-31.5 -12.5t-31 12.5t-12 31.5t12 31.5t31 12.5t31.5 -12.5t12.5 -31.5 zM263 619q0 -19 -12.5 -31.5t-31.5 -12.5t-31 12.5t-12 31.5t12 31.5t31 12.5t31.5 -12.5t12.5 -31.5z" />
<glyph unicode="&#xf0;" horiz-adv-x="525" d="M411 644l-88 -43q153 -117 153 -346q0 -127 -55 -197.5t-160 -70.5q-107 0 -159.5 66.5t-52.5 188.5q0 114 58.5 179.5t158.5 65.5q67 0 100 -30q-28 65 -94 119l-125 -61l-16 34l108 52q-56 38 -125 63l11 25q93 -22 163 -64l108 52zM409 246q0 203 -145 203 q-72 0 -109.5 -51.5t-37.5 -143.5q0 -116 34 -172.5t111 -56.5q75 0 111 60t36 161z" />
<glyph unicode="&#xf1;" horiz-adv-x="582" d="M254 -1q-60 3 -106 3q-67 0 -104 -3v16q43 2 59 20.5t16 67.5v204q0 73 -17 101t-64 28v8q45 40 81 40q11 0 19 -2.5t17 -10t14 -25t6 -44.5q24 35 70 60.5t111 25.5q81 0 110 -60q15 -37 15 -97v-186q0 -49 8 -76q12 -42 77 -42v-9q-31 -26 -65 -26q-57 0 -73 51 q-6 19 -6 103v161q0 51 -14 82q-8 22 -30 34.5t-49 12.5q-91 0 -151 -58v-282q0 -42 16.5 -61t59.5 -20v-16zM432 676q-8 -27 -16 -44t-26.5 -33t-44.5 -16q-27 0 -69 19q-44 19 -61 19q-37 0 -62 -51l-15 6q10 40 33 70t57 30q20 0 68 -20q47 -19 60 -19q22 0 35 11t26 34z " />
<glyph unicode="&#xf2;" horiz-adv-x="525" d="M476 245q0 -117 -55.5 -187.5t-159.5 -70.5q-107 0 -159.5 66.5t-52.5 188.5q0 117 58.5 183t158.5 66q210 0 210 -246zM409 246q0 111 -37 159t-108 48q-72 0 -109.5 -52.5t-37.5 -146.5q0 -116 34 -172.5t111 -56.5q75 0 111 60t36 161zM325 542l-11 -10q-39 26 -95 76 t-84 85l67 42q44 -89 123 -193z" />
<glyph unicode="&#xf3;" horiz-adv-x="525" d="M476 245q0 -117 -55.5 -187.5t-159.5 -70.5q-107 0 -159.5 66.5t-52.5 188.5q0 117 58.5 183t158.5 66q210 0 210 -246zM409 246q0 111 -37 159t-108 48q-72 0 -109.5 -52.5t-37.5 -146.5q0 -116 34 -172.5t111 -56.5q75 0 111 60t36 161zM197 532l-10 10q76 100 122 193 l67 -42q-28 -35 -84 -85t-95 -76z" />
<glyph unicode="&#xf4;" horiz-adv-x="525" d="M476 245q0 -117 -55.5 -187.5t-159.5 -70.5q-107 0 -159.5 66.5t-52.5 188.5q0 117 58.5 183t158.5 66q210 0 210 -246zM409 246q0 111 -37 159t-108 48q-72 0 -109.5 -52.5t-37.5 -146.5q0 -116 34 -172.5t111 -56.5q75 0 111 60t36 161zM400 557l-11 -12q-6 4 -127 92 q-122 -89 -126 -92l-11 12q65 71 133 164h8q75 -96 134 -164z" />
<glyph unicode="&#xf5;" horiz-adv-x="525" d="M476 245q0 -117 -55.5 -187.5t-159.5 -70.5q-107 0 -159.5 66.5t-52.5 188.5q0 117 58.5 183t158.5 66q210 0 210 -246zM409 246q0 111 -37 159t-108 48q-72 0 -109.5 -52.5t-37.5 -146.5q0 -116 34 -172.5t111 -56.5q75 0 111 60t36 161zM413 676q-8 -27 -16 -44 t-26.5 -33t-44.5 -16q-27 0 -69 19q-44 19 -61 19q-37 0 -62 -51l-15 6q10 40 33 70t57 30q20 0 68 -20q47 -19 60 -19q22 0 35 11t26 34z" />
<glyph unicode="&#xf6;" horiz-adv-x="525" d="M476 245q0 -117 -55.5 -187.5t-159.5 -70.5q-107 0 -159.5 66.5t-52.5 188.5q0 117 58.5 183t158.5 66q210 0 210 -246zM409 246q0 111 -37 159t-108 48q-72 0 -109.5 -52.5t-37.5 -146.5q0 -116 34 -172.5t111 -56.5q75 0 111 60t36 161zM222 619q0 -19 -12.5 -31.5 t-31.5 -12.5t-31 12.5t-12 31.5t12 31.5t31 12.5t31.5 -12.5t12.5 -31.5zM395 619q0 -19 -12.5 -31.5t-31.5 -12.5t-31 12.5t-12 31.5t12 31.5t31 12.5t31.5 -12.5t12.5 -31.5z" />
<glyph unicode="&#xf7;" horiz-adv-x="600" d="M337 437q0 -15 -11 -26.5t-27 -11.5q-17 0 -27.5 11.5t-10.5 27.5t11 27.5t27 11.5t27 -11.5t11 -28.5zM523 270h-446v47h446v-47zM337 148q0 -15 -11 -26.5t-27 -11.5q-17 0 -27.5 11.5t-10.5 27.5t11 27.5t27 11.5t27 -11.5t11 -28.5z" />
<glyph unicode="&#xf8;" horiz-adv-x="525" d="M476 245q0 -117 -55.5 -187.5t-159.5 -70.5q-70 0 -117 29l-40 -64l-33 19l42 69q-64 63 -64 202q0 117 58.5 183t158.5 66q67 0 112 -25l42 67l34 -20l-44 -70q66 -60 66 -198zM409 246q0 95 -30 147l-209 -335q33 -33 92 -33q75 0 111 60t36 161zM117 254 q0 -110 28 -163l208 334q-34 28 -89 28q-72 0 -109.5 -52.5t-37.5 -146.5z" />
<glyph unicode="&#xf9;" horiz-adv-x="577" d="M419 65q-61 -78 -168 -78q-42 0 -76.5 16t-49.5 45q-18 31 -18 103v166q0 52 -2 66q-4 29 -20 41t-51 12v8q14 15 40 27.5t51 12.5q39 0 41 -44q1 -19 1 -68v-202q0 -58 14 -89q24 -42 86 -42q95 0 146 56v229q0 37 -3 61q-3 27 -20 39t-54 12v8q15 14 42 27t52 13 q40 0 42 -45q1 -18 1 -97v-217q0 -53 18.5 -75.5t65.5 -22.5v-9q-25 -26 -66 -26q-63 0 -72 73zM321 542l-11 -10q-39 26 -95 76t-84 85l67 42q44 -89 123 -193z" />
<glyph unicode="&#xfa;" horiz-adv-x="577" d="M419 65q-61 -78 -168 -78q-42 0 -76.5 16t-49.5 45q-18 31 -18 103v166q0 52 -2 66q-4 29 -20 41t-51 12v8q14 15 40 27.5t51 12.5q39 0 41 -44q1 -19 1 -68v-202q0 -58 14 -89q24 -42 86 -42q95 0 146 56v229q0 37 -3 61q-3 27 -20 39t-54 12v8q15 14 42 27t52 13 q40 0 42 -45q1 -18 1 -97v-217q0 -53 18.5 -75.5t65.5 -22.5v-9q-25 -26 -66 -26q-63 0 -72 73zM233 532l-10 10q76 100 122 193l67 -42q-28 -35 -84 -85t-95 -76z" />
<glyph unicode="&#xfb;" horiz-adv-x="577" d="M419 65q-61 -78 -168 -78q-42 0 -76.5 16t-49.5 45q-18 31 -18 103v166q0 52 -2 66q-4 29 -20 41t-51 12v8q14 15 40 27.5t51 12.5q39 0 41 -44q1 -19 1 -68v-202q0 -58 14 -89q24 -42 86 -42q95 0 146 56v229q0 37 -3 61q-3 27 -20 39t-54 12v8q15 14 42 27t52 13 q40 0 42 -45q1 -18 1 -97v-217q0 -53 18.5 -75.5t65.5 -22.5v-9q-25 -26 -66 -26q-63 0 -72 73zM414 557l-11 -12q-6 4 -127 92q-122 -89 -126 -92l-11 12q65 71 133 164h8q75 -96 134 -164z" />
<glyph unicode="&#xfc;" horiz-adv-x="577" d="M419 65q-61 -78 -168 -78q-42 0 -76.5 16t-49.5 45q-18 31 -18 103v166q0 52 -2 66q-4 29 -20 41t-51 12v8q14 15 40 27.5t51 12.5q39 0 41 -44q1 -19 1 -68v-202q0 -58 14 -89q24 -42 86 -42q95 0 146 56v229q0 37 -3 61q-3 27 -20 39t-54 12v8q15 14 42 27t52 13 q40 0 42 -45q1 -18 1 -97v-217q0 -53 18.5 -75.5t65.5 -22.5v-9q-25 -26 -66 -26q-63 0 -72 73zM232 619q0 -19 -12.5 -31.5t-31.5 -12.5t-31 12.5t-12 31.5t12 31.5t31 12.5t31.5 -12.5t12.5 -31.5zM405 619q0 -19 -12.5 -31.5t-31.5 -12.5t-31 12.5t-12 31.5t12 31.5 t31 12.5t31.5 -12.5t12.5 -31.5z" />
<glyph unicode="&#xfd;" horiz-adv-x="488" d="M233 2q-108 290 -153 375q-16 30 -32.5 44.5t-43.5 14.5v8q35 40 68 40q12 0 22 -7.5t15 -14.5t13 -22q14 -25 40 -92q106 -274 107 -277q5 13 37 92.5t54 140.5q26 73 26 103q0 29 -25 42l-1 8q37 27 68 27q12 0 22 -9t10 -30q0 -10 -3 -24t-6.5 -25.5t-11.5 -31 t-12.5 -30.5t-15 -35t-14.5 -33q-11 -26 -40 -95t-45.5 -106t-43.5 -94t-53 -104q-20 -37 -41 -56.5t-32.5 -22.5t-29.5 -3q-22 0 -39.5 19.5t-20.5 45.5l6 4q16 -7 34 -7q58 0 97 69q31 55 44 86zM212 532l-10 10q76 100 122 193l67 -42q-28 -35 -84 -85t-95 -76z" />
<glyph unicode="&#xfe;" horiz-adv-x="558" d="M247 -209q-60 3 -116 3q-68 0 -105 -3v16q43 3 59 21t16 67v709q0 54 -14.5 72t-61.5 19v9q54 45 95 45q26 0 33.5 -18.5t7.5 -80.5q0 -23 -0.5 -125.5t-0.5 -111.5q65 75 152 75q38 0 69.5 -11.5t59.5 -37.5t44 -75.5t16 -119.5q0 -118 -57 -183.5t-156 -65.5 q-79 0 -127 38v-140q0 -47 19 -65.5t67 -20.5v-16zM161 75q49 -37 126 -37q62 0 104.5 49.5t42.5 145.5q0 108 -38 156t-97 48q-87 0 -138 -60v-302z" />
<glyph unicode="&#xff;" horiz-adv-x="488" d="M233 2q-108 290 -153 375q-16 30 -32.5 44.5t-43.5 14.5v8q35 40 68 40q12 0 22 -7.5t15 -14.5t13 -22q14 -25 40 -92q106 -274 107 -277q5 13 37 92.5t54 140.5q26 73 26 103q0 29 -25 42l-1 8q37 27 68 27q12 0 22 -9t10 -30q0 -10 -3 -24t-6.5 -25.5t-11.5 -31 t-12.5 -30.5t-15 -35t-14.5 -33q-11 -26 -40 -95t-45.5 -106t-43.5 -94t-53 -104q-20 -37 -41 -56.5t-32.5 -22.5t-29.5 -3q-22 0 -39.5 19.5t-20.5 45.5l6 4q16 -7 34 -7q58 0 97 69q31 55 44 86zM215 619q0 -19 -12.5 -31.5t-31.5 -12.5t-31 12.5t-12 31.5t12 31.5 t31 12.5t31.5 -12.5t12.5 -31.5zM388 619q0 -19 -12.5 -31.5t-31.5 -12.5t-31 12.5t-12 31.5t12 31.5t31 12.5t31.5 -12.5t12.5 -31.5z" />
<glyph unicode="&#x152;" horiz-adv-x="892" d="M844 0q-106 1 -317 1q-33 0 -95.5 -4t-97.5 -4q-142 0 -210.5 92.5t-68.5 251.5q0 162 78 250t212 88q31 0 96.5 -5t109.5 -5q112 0 266 3q2 -54 10 -145h-18q-15 70 -46.5 86.5t-132.5 16.5h-93v-258h53q82 0 109 15t29 57h19q-2 -31 -2 -92t2 -91h-19q-2 41 -28.5 57 t-108.5 16h-54v-282q73 -8 171 -8q62 0 86.5 25.5t32.5 94.5h20q-3 -79 -3 -160zM472 124v420q0 60 -25 75q-30 18 -102 18q-107 0 -162.5 -74t-55.5 -216q0 -316 213 -316q82 0 109 22q23 18 23 71z" />
<glyph unicode="&#x153;" horiz-adv-x="843" d="M440 95q-54 -108 -179 -108q-101 0 -156.5 68t-55.5 188q0 118 56.5 183t158.5 65q132 0 180 -101q56 101 173 101q187 0 187 -213q0 -22 -34 -22h-298q1 -110 46 -164t123 -54q97 0 151 67h6q5 -4 5 -17q0 -29 -51.5 -65t-125.5 -36q-134 0 -186 108zM409 245 q0 110 -37.5 159t-109.5 49t-108.5 -51.5t-36.5 -145.5q0 -111 37.5 -171t111.5 -60q68 0 105.5 61.5t37.5 158.5zM473 288q65 1 146 2.5t93 1.5q23 0 23 19q0 75 -31.5 108.5t-91.5 33.5q-48 0 -91 -36.5t-48 -128.5z" />
<glyph unicode="&#x178;" horiz-adv-x="621" d="M417 -1q-64 2 -113 2q-38 0 -112 -2v16q47 1 63.5 22.5t16.5 67.5v171l-170 288q-19 32 -29.5 47t-29 29t-39.5 15v14q38 -2 113 -2q47 0 111 2v-14q-73 -2 -73 -36q0 -23 28 -72l133 -223l130 219q32 54 32 75q0 35 -70 37v14q64 -2 114 -2q17 0 95 2v-14 q-25 -1 -46.5 -22.5t-52.5 -68.5l-181 -287v-172q0 -46 16 -67.5t64 -22.5v-16zM276 768q0 -19 -12.5 -31.5t-31.5 -12.5t-31 12.5t-12 31.5t12 31.5t31 12.5t31.5 -12.5t12.5 -31.5zM461 768q0 -19 -12.5 -31.5t-31.5 -12.5t-31 12.5t-12 31.5t12 31.5t31 12.5t31.5 -12.5 t12.5 -31.5z" />
<glyph unicode="&#x2c6;" horiz-adv-x="300" d="M287 557l-11 -12q-6 4 -127 92q-122 -89 -126 -92l-11 12q65 71 133 164h8q75 -96 134 -164z" />
<glyph unicode="&#x2dc;" horiz-adv-x="300" d="M297 676q-8 -27 -16 -44t-26.5 -33t-44.5 -16q-27 0 -69 19q-44 19 -61 19q-37 0 -62 -51l-15 6q10 40 33 70t57 30q20 0 68 -20q47 -19 60 -19q22 0 35 11t26 34z" />
<glyph unicode="&#x2000;" horiz-adv-x="442" />
<glyph unicode="&#x2001;" horiz-adv-x="884" />
<glyph unicode="&#x2002;" horiz-adv-x="442" />
<glyph unicode="&#x2003;" horiz-adv-x="884" />
<glyph unicode="&#x2004;" horiz-adv-x="294" />
<glyph unicode="&#x2005;" horiz-adv-x="221" />
<glyph unicode="&#x2006;" horiz-adv-x="147" />
<glyph unicode="&#x2007;" horiz-adv-x="147" />
<glyph unicode="&#x2008;" horiz-adv-x="110" />
<glyph unicode="&#x2009;" horiz-adv-x="176" />
<glyph unicode="&#x200a;" horiz-adv-x="49" />
<glyph unicode="&#x2010;" horiz-adv-x="297" d="M247 221h-197v60h197v-60z" />
<glyph unicode="&#x2011;" horiz-adv-x="297" d="M247 221h-197v60h197v-60z" />
<glyph unicode="&#x2012;" horiz-adv-x="297" d="M247 221h-197v60h197v-60z" />
<glyph unicode="&#x2013;" horiz-adv-x="580" d="M530 224h-480v54h480v-54z" />
<glyph unicode="&#x2014;" horiz-adv-x="866" d="M816 224h-766v54h766v-54z" />
<glyph unicode="&#x2018;" horiz-adv-x="192" d="M46 528q0 49 31 93.5t84 75.5l11 -13q-67 -51 -67 -103q0 -22 18 -37q26 -21 26 -42q0 -19 -13.5 -32t-32.5 -13q-26 0 -41.5 18t-15.5 53z" />
<glyph unicode="&#x2019;" horiz-adv-x="192" d="M146 612q0 -49 -31 -93.5t-84 -75.5l-11 13q67 51 67 103q0 22 -18 37q-26 21 -26 42q0 19 13.5 32t32.5 13q26 0 41.5 -18t15.5 -53z" />
<glyph unicode="&#x201a;" horiz-adv-x="192" d="M146 52q0 -49 -31 -93.5t-84 -75.5l-11 13q67 51 67 103q0 22 -18 37q-26 21 -26 42q0 19 13.5 32t32.5 13q26 0 41.5 -18t15.5 -53z" />
<glyph unicode="&#x201c;" horiz-adv-x="342" d="M196 528q0 49 31 93.5t84 75.5l11 -13q-67 -51 -67 -103q0 -22 18 -37q26 -21 26 -42q0 -19 -13.5 -32t-32.5 -13q-26 0 -41.5 18t-15.5 53zM46 528q0 49 31 93.5t84 75.5l11 -13q-67 -51 -67 -103q0 -22 18 -37q26 -21 26 -42q0 -19 -13.5 -32t-32.5 -13q-26 0 -41.5 18 t-15.5 53z" />
<glyph unicode="&#x201d;" horiz-adv-x="342" d="M146 612q0 -49 -31 -93.5t-84 -75.5l-11 13q67 51 67 103q0 22 -18 37q-26 21 -26 42q0 19 13.5 32t32.5 13q26 0 41.5 -18t15.5 -53zM296 612q0 -49 -31 -93.5t-84 -75.5l-11 13q67 51 67 103q0 22 -18 37q-26 21 -26 42q0 19 13.5 32t32.5 13q26 0 41.5 -18t15.5 -53z " />
<glyph unicode="&#x201e;" horiz-adv-x="342" d="M146 52q0 -49 -31 -93.5t-84 -75.5l-11 13q67 51 67 103q0 22 -18 37q-26 21 -26 42q0 19 13.5 32t32.5 13q26 0 41.5 -18t15.5 -53zM296 52q0 -49 -31 -93.5t-84 -75.5l-11 13q67 51 67 103q0 22 -18 37q-26 21 -26 42q0 19 13.5 32t32.5 13q26 0 41.5 -18t15.5 -53z " />
<glyph unicode="&#x2022;" horiz-adv-x="438" d="M358 326q0 -59 -39 -99.5t-100 -40.5t-100 40.5t-39 99.5q0 58 40 99t99 41q61 0 100 -40.5t39 -99.5z" />
<glyph unicode="&#x2026;" horiz-adv-x="815" d="M182 36q0 -21 -13.5 -34t-33.5 -13t-34 13.5t-14 34.5q0 20 14 33.5t34 13.5q21 0 34 -13t13 -35zM454 36q0 -21 -13.5 -34t-33.5 -13t-34 13.5t-14 34.5q0 20 14 33.5t34 13.5q21 0 34 -13t13 -35zM728 36q0 -21 -13.5 -34t-33.5 -13t-34 13.5t-14 34.5q0 20 14 33.5 t34 13.5q21 0 34 -13t13 -35z" />
<glyph unicode="&#x202f;" horiz-adv-x="176" />
<glyph unicode="&#x2039;" horiz-adv-x="301" d="M226 443l18 -14q-13 -25 -33 -57.5t-45.5 -72.5t-36.5 -58q57 -93 115 -199l-20 -12q-96 118 -181 207q80 82 183 206z" />
<glyph unicode="&#x203a;" horiz-adv-x="301" d="M75 31l-18 14q13 25 33 57.5t45.5 72.5t36.5 58q-62 103 -115 199l20 12q75 -93 181 -207q-80 -82 -183 -206z" />
<glyph unicode="&#x205f;" horiz-adv-x="221" />
<glyph unicode="&#x20ac;" horiz-adv-x="640" d="M72 395h87q17 120 84 187t173 67q85 0 130 -25.5t45 -64.5q0 -35 -49 -56l-7 3q0 54 -36 80.5t-87 26.5q-76 0 -126 -53.5t-64 -164.5h262v-33h-265q-1 -16 -1 -49v-28h266v-33h-263q13 -113 67.5 -164t130.5 -51q108 0 168 91h4q7 -8 7 -17q0 -38 -53 -81t-131 -43 q-117 0 -182 70t-77 195h-83v33h81v25q0 35 2 52h-83v33z" />
<glyph unicode="&#x2122;" horiz-adv-x="922" d="M290 282q-28 2 -83 2q-37 0 -75 -2v16q33 0 42.5 12.5t9.5 39.5v289h-28q-59 0 -73 -10t-26 -55h-18q5 50 7 94q107 -2 163 -2q59 0 165 2q2 -44 7 -94h-19q-12 44 -27.5 54.5t-75.5 10.5h-22v-289q0 -27 10.5 -39.5t42.5 -12.5v-16zM527 282q-36 2 -71 2q-23 0 -67 -2 v16q28 0 38 13.5t13 40.5q24 258 24 274q-10 21 -43 23l-1 8q26 17 58 17t45 -25q45 -84 110 -267q4 13 111 286q12 -1 53 -1q33 0 55 2v-16q-25 -1 -34 -11t-9 -34q0 -3 17 -256q2 -29 13 -41.5t40 -12.5v-16q-40 2 -75 2q-36 0 -82 -2v16q29 0 39.5 13t10.5 41 q0 44 -13 265q-9 -25 -56 -143t-69 -175h-23q-50 151 -118 296q-15 -204 -15 -243q0 -27 10.5 -40.5t38.5 -13.5v-16z" />
</font>
</defs>
</svg>
